<?xml version="1.0" standalone="no"?>
<!DOCTYPE svg PUBLIC "-//W3C//DTD SVG 20010904//EN"
 "http://www.w3.org/TR/2001/REC-SVG-20010904/DTD/svg10.dtd">
<svg version="1.0" xmlns="http://www.w3.org/2000/svg"
 width="776.000000pt" height="491.000000pt" viewBox="0 0 776.000000 491.000000"
 preserveAspectRatio="xMidYMid meet">

<g transform="translate(0.000000,491.000000) scale(0.100000,-0.100000)"
fill="#000000" stroke="none">
<path d="M0 3615 c0 -1226 1 -1296 18 -1291 9 3 49 12 87 20 39 8 77 17 86 21
15 5 42 10 94 15 l20 1 -20 9 c-11 5 -27 9 -35 9 -13 1 -13 0 0 -9 9 -6 10
-10 3 -10 -25 0 -23 21 4 31 20 8 43 8 82 0 37 -7 59 -7 73 0 11 6 40 13 66
15 25 3 50 8 56 12 6 5 24 9 39 10 16 1 36 6 45 12 15 8 15 9 -3 10 -21 1 -67
30 -48 30 7 0 15 -4 18 -10 3 -6 18 -10 33 -9 24 0 25 1 7 9 -11 5 -15 9 -8 9
6 1 20 4 30 7 15 5 15 4 3 -5 -13 -9 -13 -11 0 -11 12 0 12 -2 1 -9 -9 -6 -10
-11 -2 -15 6 -4 18 0 27 8 18 18 28 21 18 5 -10 -18 59 0 73 18 9 12 16 13 26
5 10 -8 23 -9 48 -1 19 5 47 12 63 14 16 3 34 9 39 14 6 6 23 7 38 4 22 -4 29
-2 29 10 0 9 -11 17 -27 20 -16 2 -9 3 15 1 24 -2 41 0 38 4 -2 4 4 8 15 8 25
0 24 -2 -8 -21 -16 -9 -20 -14 -10 -11 10 3 30 6 43 6 15 0 23 4 19 10 -4 7 2
9 19 4 14 -3 26 -2 26 3 0 5 12 9 28 8 18 0 26 5 24 14 -2 11 0 12 10 3 13
-10 57 -5 98 12 14 6 59 12 103 15 10 0 15 5 12 11 -3 6 1 7 9 4 9 -3 30 -1
47 5 24 8 36 8 46 0 11 -10 12 -8 7 6 -6 14 -3 16 16 10 12 -4 20 -3 17 1 -3
5 17 10 45 11 28 1 56 8 64 14 8 6 14 8 14 3 0 -4 5 -3 11 3 6 6 17 9 25 6 7
-3 30 1 50 7 27 9 33 15 23 21 -18 11 -2 12 19 0 19 -10 135 7 127 19 -2 4 8
7 23 7 33 1 94 10 142 23 19 5 105 23 190 40 85 17 156 35 158 40 2 5 10 6 17
4 8 -3 31 0 52 7 21 7 49 12 63 11 18 -1 21 1 11 7 -9 6 4 9 37 9 28 0 56 3
63 7 6 5 28 9 47 11 18 2 40 8 46 14 7 5 15 7 18 4 3 -3 26 0 49 7 24 6 57 13
73 15 16 2 35 9 42 15 7 6 18 8 23 4 6 -3 30 -1 53 6 24 7 56 14 72 16 16 2
34 7 41 13 6 5 22 6 36 3 20 -5 22 -3 11 8 -10 10 -18 11 -45 1 -45 -16 -79
-15 -103 4 -18 14 -18 15 -1 10 49 -16 65 -16 78 -4 14 13 81 19 73 7 -7 -12
25 -18 63 -12 36 6 36 7 13 15 -18 6 -14 6 15 3 59 -7 78 9 34 29 -33 16 -33
16 -4 10 17 -4 41 -7 55 -7 15 1 18 -1 8 -4 -10 -2 -18 -9 -18 -15 0 -6 7 -7
18 -3 9 4 40 11 67 15 72 11 88 19 74 36 -13 16 -3 34 19 33 15 -1 15 -2 0 -6
-10 -2 -18 -9 -18 -14 0 -6 8 -8 18 -5 10 3 41 -3 70 -13 41 -15 51 -16 42 -5
-10 11 -9 14 3 14 9 0 21 8 26 18 6 9 11 12 11 6 0 -20 108 11 130 38 24 29
26 49 3 42 -15 -5 -16 -4 -3 5 13 9 10 15 -20 41 -27 23 -36 27 -38 15 -2 -8
-13 -15 -25 -15 -21 1 -21 2 -4 14 19 15 14 22 -32 46 -19 10 -22 10 -16 -2 4
-7 -2 -3 -12 8 -10 12 -40 33 -67 46 -47 24 -48 26 -52 76 -2 28 0 54 6 57 6
4 7 11 4 17 -5 8 -7 148 -4 490 l0 56 50 4 50 3 0 -68 c0 -77 3 -80 75 -69 49
7 50 8 53 45 2 20 5 37 8 37 3 0 53 -20 111 -45 58 -25 108 -44 110 -42 2 2
-48 26 -112 53 -108 45 -115 50 -115 76 0 28 2 29 45 26 25 -2 45 -7 45 -11 0
-5 -19 -6 -42 -3 l-43 7 32 -15 c34 -15 73 -11 73 8 0 8 2 8 8 0 10 -16 52
-28 52 -15 0 6 -9 11 -20 11 -11 0 -20 5 -20 11 0 10 34 4 55 -10 6 -4 38 -18
73 -31 60 -24 85 -44 40 -32 -20 5 -21 3 -10 -10 10 -13 10 -17 -1 -21 -10 -4
-13 2 -12 17 2 19 -1 21 -36 18 -22 -2 -39 -6 -39 -8 0 -9 82 -44 90 -39 6 3
10 2 10 -4 0 -5 21 -17 46 -27 37 -14 47 -15 54 -4 5 8 14 10 26 5 11 -5 23
-7 28 -6 5 1 12 -3 16 -10 4 -6 13 -8 19 -5 6 4 8 12 5 18 -5 8 -1 9 10 5 10
-4 29 -10 42 -13 13 -3 24 -10 24 -14 0 -5 -13 -3 -30 3 -32 12 -40 9 -44 -20
-2 -12 8 -24 28 -35 36 -20 50 -22 41 -8 -3 6 -1 10 6 10 7 0 5 6 -6 14 -17
12 -16 13 10 20 15 4 30 5 33 1 3 -3 -2 -5 -11 -5 -11 0 -15 -8 -14 -27 3 -37
37 -56 77 -42 20 8 34 7 47 0 15 -9 13 -10 -11 -5 -20 5 -27 4 -22 -4 5 -8 1
-10 -11 -6 -15 5 -16 4 -3 -5 8 -6 23 -8 34 -5 11 4 16 2 12 -4 -7 -12 64 -42
102 -42 18 0 23 -3 14 -8 -9 -6 0 -14 28 -25 29 -11 40 -21 40 -37 0 -17 -4
-20 -19 -15 -16 5 -14 0 9 -24 15 -17 33 -31 39 -31 6 0 11 -9 11 -19 0 -12
11 -23 29 -29 16 -6 38 -18 49 -27 11 -10 33 -19 49 -20 15 -2 45 -10 66 -19
l37 -16 0 -140 0 -140 51 -25 c48 -25 52 -25 70 -9 16 14 19 31 19 99 0 45 3
84 6 88 4 3 21 -1 38 -10 31 -16 31 -15 14 4 -27 29 -23 54 6 49 26 -5 166
-64 179 -75 4 -4 6 -94 5 -199 l-3 -191 -30 14 c-81 37 -124 53 -129 47 -3 -3
-6 -76 -6 -161 l0 -157 85 -42 84 -41 3 -218 c2 -120 0 -222 -3 -226 -14 -19
-47 3 -46 31 0 15 -1 60 -2 100 -1 79 -3 81 -71 54 -14 -5 -63 -22 -108 -37
-73 -23 -86 -25 -100 -12 -19 16 -348 214 -400 241 -19 10 -36 15 -38 13 -5
-5 362 -226 410 -248 28 -13 35 -29 12 -29 -8 0 -21 -6 -28 -13 -7 -6 -24 -13
-38 -15 -14 -1 -32 -5 -40 -8 -13 -4 -13 -6 0 -15 11 -7 7 -8 -13 -3 -15 3
-42 1 -60 -6 -17 -7 -45 -18 -62 -25 -16 -7 -64 -22 -105 -35 -41 -12 -88 -28
-105 -35 -45 -20 -167 -56 -173 -51 -5 5 42 26 120 53 38 14 48 22 48 41 0 19
-2 21 -14 10 -8 -7 -13 -17 -13 -23 1 -5 -16 -11 -37 -12 -22 -1 -46 -5 -53
-7 -7 -3 -12 -2 -12 2 5 29 -6 44 -38 58 -35 14 -40 14 -71 -2 -22 -12 -35
-27 -39 -46 -5 -26 -14 -31 -137 -69 -72 -22 -137 -42 -145 -45 -9 -3 -11 1
-7 11 3 9 2 13 -4 10 -6 -3 -13 1 -16 9 -15 38 -98 9 -116 -40 -10 -29 -15
-33 -37 -27 -14 3 -34 10 -44 15 -10 5 -21 7 -24 4 -14 -13 11 -39 57 -59 28
-13 47 -27 43 -31 -5 -5 1 -6 12 -1 11 4 38 9 60 11 40 4 193 49 354 105 46
16 86 27 88 25 6 -6 -87 -47 -109 -49 -9 -1 -15 -4 -12 -8 2 -4 14 -5 27 -3
12 2 15 1 7 -2 -8 -4 -21 -12 -29 -18 -11 -8 -13 -8 -7 2 4 6 3 12 -3 12 -5 0
-13 -4 -16 -10 -3 -5 -11 -10 -18 -10 -6 0 -2 7 9 15 26 19 22 19 -71 -13 -44
-15 -81 -33 -82 -40 -3 -13 9 -16 20 -5 15 14 87 41 87 32 0 -5 -8 -12 -17
-15 -10 -4 -32 -12 -50 -20 -17 -8 -39 -14 -50 -14 -13 0 -14 -3 -5 -8 8 -6 2
-9 -18 -9 l-31 0 31 20 c17 11 29 21 27 24 -8 8 -57 -9 -51 -18 3 -5 -1 -7 -8
-4 -7 3 -44 -7 -83 -21 -38 -14 -89 -31 -113 -36 -23 -5 -39 -14 -36 -19 3 -6
0 -9 -7 -8 -19 4 -75 -10 -129 -31 -25 -9 -77 -28 -117 -40 -40 -13 -69 -28
-66 -34 4 -5 0 -7 -9 -3 -9 3 -33 -1 -54 -8 -32 -12 -38 -19 -13 -17 3 1 23
-5 45 -13 l39 -14 -32 -1 c-17 0 -33 6 -36 13 -3 9 -7 9 -20 -1 -9 -8 -26 -12
-39 -9 -19 4 -18 5 7 6 25 1 27 3 13 11 -12 8 -41 2 -105 -21 -48 -17 -116
-40 -150 -51 -35 -11 -63 -24 -63 -28 0 -4 -8 -6 -19 -3 -10 2 -25 -2 -33 -11
-9 -8 -18 -12 -21 -9 -4 3 -30 -4 -59 -15 -29 -12 -62 -23 -73 -25 -11 -3 -1
-5 23 -6 32 -1 41 2 36 12 -6 10 -4 10 7 0 7 -7 20 -13 28 -13 12 0 13 2 3 9
-10 6 -10 10 2 20 11 10 19 10 33 1 16 -10 15 -10 -4 -5 -30 8 -30 -9 0 -23
20 -10 20 -11 2 -10 -11 1 -29 0 -40 -1 l-20 -2 20 -9 c22 -9 -45 -6 -100 5
-26 5 -27 4 -7 -4 23 -11 30 -31 10 -31 -6 0 -8 3 -5 7 4 3 -6 12 -20 20 -17
9 -29 10 -31 4 -2 -5 -10 -7 -18 -4 -12 4 -19 -7 -15 -29 0 -4 -6 -5 -15 -1
-13 5 -13 8 -2 15 10 8 10 9 -2 6 -39 -12 -126 -43 -130 -48 -8 -8 -49 -30
-55 -30 -4 0 -4 4 -1 8 3 5 -10 4 -28 -2 -30 -9 -32 -12 -17 -23 14 -11 12
-12 -11 -3 -18 6 -29 6 -33 -1 -4 -5 -10 -7 -15 -4 -12 8 -41 -6 -34 -16 3 -5
10 -9 15 -9 6 0 8 3 6 8 -3 4 8 8 24 9 15 1 31 -3 35 -8 4 -7 -2 -9 -17 -5
l-24 7 24 -14 c19 -11 20 -15 8 -20 -9 -3 -18 1 -21 10 -4 9 -13 13 -22 9 -8
-3 -23 -2 -33 4 -20 10 -94 -8 -85 -21 3 -5 -1 -7 -8 -4 -7 3 -40 -4 -73 -15
-33 -10 -52 -19 -43 -19 9 -1 29 -6 45 -12 26 -10 27 -12 8 -19 -28 -12 -43
-12 -25 0 13 8 13 9 0 14 -37 11 -60 13 -60 5 0 -4 -6 -6 -13 -3 -7 2 -22 -4
-32 -16 -10 -11 -23 -20 -29 -20 -6 0 -4 5 4 10 8 5 11 10 7 10 -14 0 -142
-42 -151 -50 -10 -10 25 -29 58 -32 42 -4 29 -14 -16 -13 -34 1 -43 5 -50 25
-5 13 -7 122 -6 242 2 120 0 218 -4 218 -10 0 -9 39 -8 -408 1 -343 -3 -398
-24 -364 -3 5 -6 77 -7 161 -1 130 -3 152 -16 147 -8 -3 -20 -6 -26 -7 -7 0
-3 -5 8 -10 17 -8 15 -9 -9 -5 -17 2 -62 -7 -100 -20 -39 -13 -64 -23 -56 -24
8 0 0 -10 -18 -22 -27 -17 -36 -18 -45 -8 -9 9 -9 11 0 6 14 -7 43 3 43 15 0
6 -7 6 -17 0 -10 -5 -20 -9 -23 -9 -22 1 -88 -27 -83 -35 3 -6 1 -7 -5 -3 -17
10 -184 -43 -175 -56 3 -7 1 -8 -5 -4 -16 9 -63 -4 -56 -16 4 -6 -2 -8 -15 -3
-22 7 -30 -10 -8 -18 7 -4 6 -6 -5 -6 -9 -1 -18 3 -20 8 -1 5 -34 -2 -73 -14
-38 -13 -61 -24 -50 -24 11 0 38 6 60 14 53 19 67 19 30 -1 -16 -9 -55 -17
-85 -19 -30 -2 -61 -3 -68 -4 -7 -1 -10 -6 -6 -13 4 -7 3 -8 -4 -4 -13 8 -223
-61 -233 -77 -4 -5 -11 -7 -15 -5 -5 3 -38 -5 -74 -18 -36 -13 -53 -22 -37
-19 15 3 27 1 27 -5 0 -12 1 -12 -73 -14 -32 0 -61 -6 -65 -11 -4 -6 -11 -10
-17 -10 -25 -2 -95 -27 -95 -34 0 -5 -9 -7 -20 -4 -11 3 -20 0 -20 -6 0 -6 5
-11 12 -11 6 0 8 -3 5 -6 -4 -4 -12 -2 -20 4 -15 13 -287 -77 -320 -105 -12
-11 -17 -12 -12 -4 6 11 4 13 -9 8 -10 -4 -29 -10 -42 -13 -34 -9 -30 -19 9
-21 23 -2 28 0 17 7 -8 5 -10 10 -5 10 6 0 17 -5 25 -10 13 -9 13 -10 0 -10
-12 0 -12 -2 -2 -9 11 -7 10 -10 -3 -15 -24 -9 -32 -7 -15 4 10 6 5 9 -18 8
l-32 -1 0 -74 c0 -40 3 -72 8 -72 22 4 32 -3 32 -22 0 -16 -4 -19 -19 -14 -19
6 -19 -1 -21 -170 l-1 -175 3881 0 3880 0 0 481 c0 291 -4 478 -9 474 -5 -3
-26 4 -45 16 -37 22 -51 38 -17 19 11 -5 26 -8 33 -7 7 2 10 2 5 0 -4 -3 -4
-9 -1 -14 3 -6 11 -5 20 2 21 18 20 175 -2 183 -9 3 -21 3 -26 -1 -6 -3 -8 -2
-5 4 3 5 -40 34 -96 63 -56 29 -114 61 -129 71 -14 11 -30 19 -35 19 -4 0 -1
-5 7 -10 9 -6 10 -10 3 -10 -7 0 -16 8 -22 17 -5 9 -32 28 -59 42 -28 15 -74
39 -104 55 -33 18 -48 22 -39 12 8 -9 11 -20 7 -23 -4 -4 -11 -1 -16 7 -10 16
-32 22 -78 23 -18 0 -27 4 -21 8 9 5 8 15 -6 36 l-18 28 30 -27 c16 -16 39
-28 52 -28 14 0 20 -4 15 -12 -4 -7 -3 -8 4 -4 17 10 15 13 -15 29 -16 7 -132
71 -260 140 -256 140 -270 147 -258 126 5 -8 5 -11 -1 -6 -5 5 -10 13 -10 18
-1 5 -2 12 -3 15 0 4 -8 1 -16 -6 -13 -11 -14 -10 -10 1 4 10 -17 26 -66 52
-39 21 -68 33 -64 27 3 -5 -1 -10 -9 -10 -9 0 -16 -4 -16 -10 0 -5 -5 -10 -11
-10 -8 0 -8 5 1 15 8 9 9 15 2 15 -6 0 -14 -4 -17 -10 -3 -5 -14 -10 -23 -10
-11 1 -8 6 11 16 15 8 32 12 37 9 6 -3 10 -3 10 2 0 11 -61 45 -68 38 -3 -3 1
-5 9 -6 8 0 6 -4 -6 -9 -18 -8 -18 -9 5 -10 24 -1 24 -1 5 -12 -11 -6 -23 -16
-27 -22 -5 -6 -6 8 -3 31 5 39 3 42 -31 62 -24 15 -40 18 -48 12 -7 -6 -17 -6
-26 -1 -12 8 -11 10 5 10 24 0 -28 34 -165 107 -52 28 -134 72 -181 98 l-86
47 5 56 c3 31 10 60 16 64 6 4 65 28 131 54 66 26 138 55 160 65 22 9 193 79
380 154 268 108 345 135 369 131 27 -6 29 -5 12 7 -17 13 -16 15 23 24 25 7
41 7 41 1 0 -5 5 -6 10 -3 6 4 8 10 6 14 -3 3 4 7 14 7 10 0 23 -8 29 -18 7
-11 7 -18 1 -18 -5 0 -10 5 -10 10 0 6 -7 10 -15 10 -27 0 -16 -20 15 -27 17
-3 33 -10 36 -14 3 -5 10 -9 15 -9 6 0 7 6 3 12 -5 7 5 3 20 -10 29 -23 70
-29 80 -13 4 5 0 12 -6 14 -7 3 -8 6 -3 6 6 0 17 -4 25 -9 13 -8 12 -11 -4
-23 -18 -13 -17 -15 20 -27 21 -7 44 -16 49 -20 6 -5 12 -8 15 -9 7 0 37 -11
115 -44 39 -16 84 -33 100 -39 17 -6 42 -17 57 -25 17 -9 29 -10 33 -3 3 5 16
10 28 9 21 0 21 -1 2 -9 l-20 -9 20 0 c17 -1 17 -3 5 -11 -13 -8 -13 -10 3
-11 23 -2 74 -20 97 -34 4 -3 8 155 9 351 2 355 2 356 -20 375 -12 10 -29 19
-38 19 -13 0 -13 -2 -3 -9 11 -7 11 -9 -2 -14 -8 -3 -17 -3 -20 1 -9 14 9 30
39 37 23 5 26 4 15 -4 -13 -9 -13 -11 2 -11 9 0 18 -6 20 -12 3 -7 5 4 6 24
l1 37 -47 -19 c-26 -10 -62 -24 -80 -31 -24 -8 -30 -14 -20 -20 10 -7 9 -9 -4
-9 -10 0 -18 4 -18 9 0 9 -121 -28 -195 -59 -16 -7 -34 -14 -40 -15 -54 -7
-85 -19 -85 -32 0 -13 3 -13 24 0 13 9 27 13 30 10 3 -4 -8 -13 -25 -20 -19
-8 -28 -17 -23 -25 5 -8 2 -9 -10 -5 -10 4 -20 7 -22 7 -2 0 -4 5 -4 11 0 5 5
7 10 4 6 -3 10 1 10 10 0 9 -4 13 -10 10 -6 -4 -10 30 -10 95 0 70 -3 99 -11
95 -7 -5 -9 -42 -8 -103 2 -68 0 -97 -9 -100 -13 -4 -13 -11 -13 467 0 189 -3
261 -11 253 -8 -8 -11 -147 -11 -446 l0 -436 -23 0 c-23 0 -24 3 -24 65 0 39
-4 65 -11 65 -5 0 -8 -4 -5 -9 4 -5 -3 -7 -14 -4 -20 5 -90 -32 -90 -48 0 -5
-4 -9 -10 -9 -5 0 -7 7 -4 15 6 15 -7 21 -20 8 -13 -14 -39 -11 -84 9 -26 11
-164 67 -307 124 -143 58 -273 111 -290 119 -16 7 -59 25 -95 38 -79 30 -413
164 -457 183 -17 8 -35 14 -41 14 -20 0 -63 28 -50 33 7 2 -4 4 -24 4 -35 -1
-57 -17 -23 -17 15 0 161 -57 695 -273 157 -63 321 -129 365 -147 253 -99 279
-111 263 -122 -7 -4 -17 -8 -23 -8 -5 0 -3 5 5 10 13 8 13 10 -2 10 -9 0 -20
-5 -24 -11 -8 -14 14 -29 42 -29 12 0 25 -7 28 -16 3 -8 10 -12 16 -9 5 3 10
1 10 -5 0 -15 -46 -5 -80 18 -14 9 -29 15 -33 14 -5 -1 -6 2 -2 8 11 17 -7 11
-42 -16 -18 -14 -33 -31 -33 -37 0 -19 33 -43 55 -39 15 2 16 1 7 -6 -11 -8
-11 -10 2 -15 8 -3 18 -1 22 5 4 6 3 8 -4 5 -6 -5 -8 1 -5 14 5 18 3 20 -16
14 -20 -6 -27 3 -22 29 1 5 -5 6 -14 3 -23 -9 -18 -1 10 17 17 11 31 14 42 8
11 -6 12 -11 4 -16 -6 -4 -11 -2 -11 5 0 16 -13 3 -16 -17 -2 -10 3 -13 15 -9
11 3 17 -1 19 -13 5 -48 11 -57 48 -73 l39 -16 -28 -14 c-25 -11 -34 -10 -82
14 -39 19 -59 36 -70 59 -10 23 -13 26 -9 8 9 -35 28 -54 75 -75 28 -13 36
-21 27 -27 -7 -4 -105 -44 -218 -89 -113 -45 -209 -85 -215 -89 -5 -4 -21 -11
-35 -15 -14 -4 -61 -22 -105 -40 -44 -18 -111 -45 -150 -60 -125 -49 -240 -96
-254 -104 -10 -5 -27 5 -53 32 -30 31 -38 47 -36 71 1 18 -2 37 -6 44 -9 15
-58 16 -74 0 -14 -14 -16 -74 -2 -83 6 -3 2 -21 -10 -43 -11 -20 -20 -42 -20
-48 0 -7 -8 -15 -17 -18 -10 -4 -14 -4 -10 0 4 4 -5 13 -19 21 -20 10 -30 10
-41 2 -11 -9 -12 -9 -8 4 9 21 -9 29 -37 17 -22 -10 -22 -10 5 -7 36 5 34 -1
-4 -15 -23 -8 -27 -13 -17 -19 9 -6 9 -9 1 -9 -16 0 -28 21 -17 29 13 9 16 31
5 31 -5 0 -12 -5 -14 -10 -3 -6 -4 -5 -3 2 2 7 14 12 27 11 18 -1 14 3 -16 18
-23 11 -51 17 -65 14 -19 -4 -21 -3 -10 5 12 8 10 10 -11 10 -26 0 -26 -2 -21
-47 3 -27 9 -50 13 -51 5 -2 7 -8 3 -13 -6 -11 18 -12 32 -1 5 4 1 -1 -9 -11
-11 -9 -27 -17 -36 -17 -11 0 -12 3 -4 8 8 5 9 13 3 22 -6 8 -10 31 -10 50 0
44 -12 63 -33 54 -15 -5 -17 5 -17 96 0 77 3 101 13 97 8 -2 12 -30 12 -90 0
-48 4 -87 8 -87 4 0 7 45 6 101 -1 63 3 105 10 112 14 14 15 307 1 307 -6 0
-10 85 -10 236 l0 236 -42 16 -41 16 84 18 c46 9 68 15 49 13 -148 -19 -174
-17 -233 9 -67 30 -90 34 -32 5 l40 -20 -35 5 c-25 4 -31 3 -20 -4 8 -5 29
-10 45 -10 17 -1 62 -14 100 -29 l70 -29 3 -226 c2 -197 0 -226 -13 -226 -13
0 -15 29 -15 208 l0 209 -97 38 c-127 49 -175 74 -168 85 10 16 -14 60 -32 59
-17 -1 -17 -2 0 -6 9 -2 17 -8 17 -13 0 -9 -41 5 -149 49 -84 34 -110 36 -31
2 58 -25 72 -57 18 -39 -18 6 -37 15 -43 19 -5 5 -19 9 -31 9 -26 0 -39 26
-18 34 9 3 12 10 9 16 -10 16 5 12 103 -30 51 -22 95 -40 98 -40 15 0 -9 19
-32 24 -14 4 -57 21 -95 38 -49 22 -68 35 -65 45 7 18 -17 78 -35 89 -11 6
-11 4 0 -9 21 -27 5 -32 -25 -8 -15 11 -40 21 -55 21 -24 0 -29 4 -29 26 0 23
1 24 16 9 10 -10 24 -13 36 -9 14 4 18 2 14 -5 -7 -10 5 -15 31 -12 6 1 20 -9
30 -22 10 -13 25 -26 33 -30 9 -3 10 -6 3 -6 -7 -1 -13 -6 -13 -12 0 -5 4 -8
9 -5 5 3 13 0 19 -7 10 -11 12 -18 12 -34 0 -4 7 2 16 13 8 10 13 14 10 8 -7
-15 22 -41 56 -49 16 -4 28 -11 28 -16 0 -5 10 -7 23 -4 16 4 29 -1 47 -19 13
-15 27 -26 32 -26 5 0 30 -10 56 -22 63 -30 229 -33 259 -5 11 9 24 17 29 17
5 0 2 -5 -6 -10 -11 -8 -9 -9 10 -5 34 8 82 9 100 3 8 -2 12 -3 8 -1 -17 10
-6 21 25 26 17 4 73 16 122 27 50 12 104 24 120 27 37 7 65 30 58 49 -8 23
-25 16 -18 -7 5 -15 4 -19 -5 -14 -6 4 -10 16 -7 26 4 15 0 19 -21 18 -19 -1
-21 -3 -9 -6 13 -3 17 -11 14 -23 -3 -11 0 -21 7 -24 6 -2 -2 -5 -18 -5 -16
-1 -45 -6 -65 -12 -27 -8 -44 -7 -66 1 -16 7 -25 14 -18 17 7 2 21 -1 33 -7
23 -13 84 2 108 27 11 11 10 13 -10 13 -13 0 -29 4 -36 9 -19 11 60 23 103 15
19 -3 49 -1 69 6 29 9 40 8 68 -7 35 -19 39 -20 78 -22 20 -1 22 -3 10 -11
-13 -8 -13 -11 -1 -19 11 -7 9 -11 -9 -21 -24 -13 -43 -4 -20 10 13 9 13 10 0
10 -24 0 -44 -16 -31 -24 21 -13 11 -26 -20 -26 -26 0 -29 3 -24 20 6 20 -2
24 -42 23 -7 -1 -13 3 -13 8 0 5 -7 9 -15 9 -8 0 -15 -4 -15 -10 0 -5 -7 -10
-15 -10 -9 0 -15 -9 -15 -25 0 -19 -5 -25 -22 -26 -22 -1 -22 -1 2 -8 16 -4
25 -14 25 -26 0 -44 137 -61 301 -38 44 7 97 20 117 29 20 10 40 15 43 11 3
-3 7 -42 9 -87 2 -68 6 -85 24 -102 24 -21 66 -18 109 8 20 13 22 21 22 119 0
65 4 106 11 111 8 4 7 9 -2 14 -8 6 1 11 27 15 21 4 52 11 68 16 16 5 45 9 65
9 21 0 41 4 47 9 5 5 45 17 89 26 44 9 82 18 85 21 6 6 -65 -3 -124 -16 -21
-5 -48 -5 -60 0 -11 5 -16 9 -9 9 6 1 14 10 18 20 5 16 12 19 39 14 25 -4 39
0 54 15 24 24 92 39 92 20 1 -7 2 -63 3 -125 2 -100 4 -114 23 -132 20 -18 25
-18 65 -7 l44 13 3 146 3 146 32 9 c17 6 39 11 47 11 8 0 30 4 48 7 31 6 32 6
32 -30 0 -53 16 -44 19 10 l1 47 -30 -7 c-16 -3 -45 -8 -62 -11 -30 -5 -30 -4
7 10 l40 14 -40 -5 c-22 -3 -44 -12 -48 -20 -4 -8 -16 -14 -25 -13 -14 0 -13
2 3 9 36 15 -7 11 -85 -10 -41 -10 -76 -24 -78 -30 -2 -5 -11 -10 -20 -10 -15
0 -15 2 -2 11 11 8 8 9 -14 4 -19 -4 -32 -2 -37 7 -12 18 -11 28 1 28 6 0 19
9 30 20 11 11 28 20 38 19 11 0 7 -5 -13 -14 -39 -18 -12 -18 45 -1 35 12 39
15 19 15 -15 1 -32 8 -39 16 -7 8 -22 15 -34 14 -20 0 -21 -1 -1 -9 13 -5 14
-9 5 -9 -16 0 -59 16 -50 19 3 1 12 3 21 5 9 1 27 6 39 10 15 5 20 4 16 -4 -4
-6 -1 -11 6 -11 8 0 30 -8 50 -19 21 -10 40 -16 43 -12 4 3 10 6 13 7 47 5
101 18 98 23 -2 3 15 7 39 8 44 1 84 17 97 37 5 8 8 7 8 -1 0 -7 10 -13 23
-12 21 0 21 1 2 10 -16 7 -13 8 13 4 18 -2 52 2 75 10 23 7 49 13 57 12 29 -3
129 24 140 38 8 9 18 12 27 6 8 -4 31 -4 51 0 21 5 48 11 62 13 31 6 40 52 12
59 -16 4 -16 5 1 6 16 1 17 29 17 431 l0 430 -2950 0 c-2091 0 -2950 -3 -2950
-11 0 -6 15 -10 33 -8 53 3 77 0 77 -12 0 -6 -7 -8 -15 -5 -8 3 -22 9 -30 12
-8 3 -15 1 -15 -5 0 -6 5 -11 12 -11 11 0 81 -30 122 -51 14 -8 17 -7 14 3 -3
7 -17 14 -31 16 -15 2 -27 8 -27 14 0 5 7 7 16 4 9 -3 28 -9 42 -12 21 -4 24
-3 12 5 -18 13 -1 15 18 2 11 -7 11 -9 -2 -14 -22 -9 -20 -20 5 -35 16 -10 24
-11 35 -1 12 10 13 9 8 -5 -4 -10 0 -18 12 -22 11 -3 44 -17 74 -31 78 -36
226 -84 260 -85 17 -1 27 -5 23 -11 -4 -6 0 -8 11 -4 9 4 30 0 46 -8 33 -17
54 -20 45 -5 -3 5 7 3 22 -4 55 -28 275 -100 340 -112 18 -4 30 -10 27 -15 -2
-4 8 -8 23 -7 24 0 532 -131 588 -152 18 -7 46 -15 125 -35 14 -4 45 -13 70
-21 l45 -14 -65 5 c-180 14 -308 26 -335 31 -29 6 -29 5 -10 -10 19 -15 18
-15 -12 -7 -23 7 -37 5 -54 -7 -12 -8 -19 -11 -16 -5 11 18 -15 31 -78 37
l-60 6 80 -33 c63 -27 82 -31 88 -20 13 21 37 15 37 -10 0 -17 10 -28 40 -41
46 -20 62 -15 56 20 -3 14 -1 22 5 19 5 -4 7 -10 4 -15 -3 -5 3 -13 12 -19 16
-9 16 -10 2 -11 -9 0 -22 -7 -29 -15 -10 -12 -9 -15 6 -15 11 0 44 -9 74 -21
82 -31 96 -33 184 -20 44 6 98 12 118 14 34 2 38 5 38 30 0 16 4 26 9 23 4 -3
6 -18 3 -32 -4 -24 -2 -26 14 -20 10 4 57 11 104 17 47 5 129 14 182 20 53 6
101 8 107 4 24 -14 8 -23 -56 -30 -38 -4 -75 -8 -83 -10 -77 -15 -225 -30
-240 -25 -20 7 -40 7 -40 0 0 -13 -22 -17 -205 -40 -93 -12 -171 -23 -173 -24
-3 -4 -3 -841 1 -859 1 -7 -10 -13 -25 -15 l-28 -3 0 120 c0 74 -4 121 -10
121 -14 0 -13 167 0 172 12 4 21 83 13 112 -4 15 -7 16 -14 5 -6 -10 -9 -5 -8
16 0 17 0 113 0 215 0 102 1 197 3 213 3 26 -9 38 -16 16 -3 -9 -9 -9 -25 0
-12 6 -28 11 -35 10 -7 0 4 -7 25 -16 l37 -15 -2 -189 c-1 -104 -5 -189 -9
-189 -3 0 -14 9 -24 20 -12 13 -14 20 -6 20 7 0 11 6 9 12 -3 7 -11 13 -19 13
-8 0 -25 6 -39 14 l-25 14 24 -26 24 -26 -25 -10 c-13 -5 -51 -12 -84 -16 -32
-4 -66 -9 -75 -11 -11 -3 -19 7 -28 37 -7 22 -11 42 -9 44 2 2 37 8 78 14 41
7 76 13 77 15 2 2 -17 13 -42 25 -52 25 -107 26 -190 5 -33 -8 -64 -16 -70
-17 -5 -2 -21 -9 -34 -16 -21 -12 -23 -18 -18 -65 13 -110 17 -116 119 -168
133 -68 158 -75 271 -71 l97 3 0 -66 c0 -52 -4 -70 -17 -80 -17 -13 -17 -14 2
-8 14 4 16 3 7 -3 -7 -6 -12 -14 -11 -19 4 -24 -2 -45 -12 -39 -6 4 -8 9 -5
13 3 3 -2 11 -12 19 -16 12 -16 13 1 7 14 -5 18 -2 15 12 -4 27 -19 39 -48 41
l-25 2 25 -19 c28 -22 17 -26 -19 -6 -16 9 -20 16 -12 20 6 4 8 12 5 18 -4 5
4 5 17 -2 13 -7 20 -8 14 -3 -5 6 -49 31 -97 57 -79 42 -88 45 -88 27 0 -11
-4 -22 -9 -26 -5 -3 -8 7 -6 23 3 25 -2 32 -34 50 -70 40 -87 43 -112 21 -27
-23 -42 -24 -59 -3 -11 13 -10 16 8 21 12 3 19 9 16 14 -3 5 0 9 5 9 6 0 11
-9 11 -20 0 -17 3 -19 20 -8 17 11 11 17 -68 61 -48 27 -98 53 -111 58 -13 5
-37 19 -53 30 -25 18 -34 20 -55 10 -24 -11 -25 -13 -9 -30 26 -29 56 -34 56
-9 0 10 -4 17 -8 14 -5 -3 -9 2 -9 10 0 13 2 13 15 0 8 -8 15 -26 15 -40 0
-22 3 -26 21 -21 15 5 17 4 8 -3 -11 -7 -10 -10 3 -16 23 -8 23 -8 21 14 0 11
2 20 7 20 27 1 29 -2 11 -15 -16 -13 -16 -14 -1 -9 9 3 17 1 17 -4 0 -6 8 -12
18 -15 9 -2 -4 -3 -29 -2 -44 2 -117 36 -163 74 -10 9 -20 15 -22 14 -8 -6
-27 -3 -22 3 6 5 29 11 53 13 6 1 3 6 -5 12 -12 8 -9 9 10 4 24 -6 24 -5 6 9
-11 9 -24 16 -28 16 -5 0 -27 12 -49 26 -29 18 -49 24 -68 20 -19 -5 -22 -4
-11 3 8 6 12 12 10 14 -17 14 -130 65 -124 56 4 -7 2 -10 -7 -7 -8 3 -13 10
-12 17 2 6 -11 18 -27 26 -17 9 -30 13 -30 10 0 -3 -15 5 -32 18 -59 43 -246
138 -253 127 -3 -5 2 -10 12 -10 10 -1 29 -7 43 -15 30 -17 21 -20 -14 -4 -14
7 -33 8 -43 5 -17 -7 -17 -8 1 -22 34 -24 6 -15 -50 17 -30 17 -54 32 -54 33
0 2 15 -2 34 -8 19 -6 32 -14 30 -18 -3 -4 2 -8 11 -8 11 0 15 5 12 14 -3 7 0
19 6 26 10 10 8 10 -10 1 -27 -14 -44 -14 -20 0 9 6 15 15 12 20 -4 5 -11 7
-16 4 -5 -4 -9 -1 -9 5 0 7 -7 9 -16 6 -8 -3 -13 -2 -10 3 3 5 -27 26 -67 46
-39 21 -69 34 -65 30 6 -6 -33 -35 -48 -35 -14 0 0 19 16 23 11 3 20 10 20 16
0 6 -7 7 -17 4 -11 -4 -14 -3 -9 6 9 14 -46 39 -92 43 -17 1 -29 6 -26 10 3 4
12 4 22 1 31 -11 8 4 -71 46 -43 23 -75 36 -71 30 4 -7 1 -10 -7 -7 -8 3 -14
10 -14 16 0 7 -3 11 -6 10 -4 -2 -16 5 -26 15 -11 9 -23 14 -26 11 -4 -4 1
-13 11 -21 12 -10 14 -16 4 -19 -6 -3 -10 -10 -6 -15 6 -10 -9 -12 -19 -2 -4
3 1 12 11 19 14 11 14 14 2 15 -8 1 -19 3 -25 4 -5 2 -25 3 -44 4 -44 1 -36 9
13 13 20 1 39 5 42 9 5 8 -55 33 -74 30 -8 -1 -20 3 -27 9 -8 7 -18 9 -23 7
-11 -7 -38 10 -30 18 4 4 21 0 39 -9 47 -23 46 -13 -1 12 -22 11 -40 17 -40
11 0 -5 -7 -9 -16 -9 -14 0 -15 2 -3 17 8 9 9 14 2 10 -6 -4 -13 -2 -15 4 -5
14 -48 -6 -48 -22 0 -5 -16 6 -35 26 -20 19 -43 35 -53 35 -12 0 -8 -6 13 -20
48 -32 22 -23 -50 16 -65 36 -93 59 -34 29 50 -26 57 -11 7 17 -30 16 -51 22
-59 17 -12 -7 -12 -9 0 -9 8 0 12 -3 9 -6 -4 -3 -16 0 -28 6 -17 9 -19 14 -10
20 7 5 19 6 25 4 7 -3 15 1 18 9 4 11 -33 36 -136 90 -126 67 -179 85 -160 54
3 -5 1 -7 -5 -3 -5 3 -12 2 -14 -2 -1 -4 -14 -2 -28 6 l-25 14 29 -7 c26 -6
28 -5 16 10 -9 11 -22 14 -38 10 -13 -3 -32 -3 -43 0 -17 6 -17 8 -5 21 8 8
23 14 33 13 15 0 14 -2 -4 -9 -34 -14 -28 -23 11 -16 24 5 39 2 49 -9 9 -8 18
-11 21 -6 4 5 -15 19 -40 31 -39 19 -51 21 -80 12 -19 -5 -32 -6 -29 -2 3 5
-145 9 -330 10 l-335 0 0 -1295z m2007 1269 c-3 -3 -12 -4 -19 -1 -8 3 -5 6 6
6 11 1 17 -2 13 -5z m-1152 -52 c-3 -3 -11 0 -18 7 -9 10 -8 11 6 5 10 -3 15
-9 12 -12z m1295 -6 c18 -7 29 -16 24 -18 -5 -3 -22 3 -39 13 -36 22 -30 24
15 5z m-1223 -38 c-1 -6 11 -13 27 -14 40 -4 46 -14 7 -14 -19 0 -30 -4 -26
-10 8 -13 -26 -1 -47 18 -21 17 -15 33 10 26 11 -4 8 2 -8 16 l-25 21 32 -16
c18 -8 32 -21 30 -27z m1193 26 c0 -2 -7 -4 -15 -4 -8 0 -15 4 -15 10 0 5 7 7
15 4 8 -4 15 -8 15 -10z m-1264 -22 c-4 -3 -14 2 -24 12 -16 18 -16 18 6 6 13
-6 21 -14 18 -18z m1347 -9 c-7 -2 -19 -2 -25 0 -7 3 -2 5 12 5 14 0 19 -2 13
-5z m87 -21 c3 -3 -8 -2 -25 2 -28 6 -29 5 -11 -9 25 -19 16 -19 -20 0 -20 10
-23 15 -11 15 9 0 17 5 17 10 0 10 35 -3 50 -18z m61 -18 c17 -8 28 -18 26
-21 -3 -3 -16 2 -29 11 -31 22 -45 20 -23 -4 10 -11 13 -20 7 -20 -6 0 -13 4
-17 10 -3 5 -13 7 -23 4 -14 -5 -15 -4 -2 5 8 6 11 11 7 11 -12 0 2 20 14 20
6 0 24 -7 40 -16z m-1348 -4 c7 0 7 -4 -1 -12 -10 -10 -15 -10 -21 1 -5 8 -14
10 -21 6 -9 -6 -11 -4 -6 4 5 7 15 10 23 7 8 -3 20 -6 26 -6z m70 -47 c-35
-14 -43 -8 -17 13 18 15 18 15 -3 9 -13 -4 -23 -2 -23 3 0 19 14 21 42 4 l29
-17 -28 -12z m1382 7 c22 -11 33 -19 25 -20 -8 0 -28 7 -43 15 -15 8 -35 11
-44 8 -11 -4 -14 -3 -9 5 10 16 24 15 71 -8z m85 -35 c14 -8 21 -14 15 -14 -5
0 -21 6 -35 14 -14 8 -20 14 -15 14 6 0 21 -6 35 -14z m-1176 -147 c-3 -4 -11
-5 -19 -1 -21 7 -19 12 4 10 11 0 18 -5 15 -9z m96 -33 c0 -1 -12 -2 -26 -2
-17 0 -22 2 -13 7 10 7 39 3 39 -5z m45 -5 c3 -5 -1 -10 -9 -10 -8 0 -18 5
-21 10 -3 6 1 10 9 10 8 0 18 -4 21 -10z m15 -50 c8 -5 11 -10 5 -10 -5 0 -17
5 -25 10 -8 5 -10 10 -5 10 6 0 17 -5 25 -10z m120 -31 c0 7 5 9 12 5 9 -6 9
-9 -1 -12 -11 -4 -11 -6 0 -13 11 -7 11 -9 1 -9 -7 0 -10 -4 -7 -10 4 -6 -1
-7 -11 -3 -13 5 -14 8 -5 11 9 3 4 12 -15 29 l-29 24 28 -17 c18 -11 27 -12
27 -5z m70 -25 c0 -2 -9 -4 -20 -4 -11 0 -20 4 -20 9 0 5 9 7 20 4 11 -3 20
-7 20 -9z m25 -24 c8 -13 -15 -13 -35 0 -12 8 -11 10 7 10 12 0 25 -4 28 -10z
m-22 -20 c21 -11 43 -18 49 -14 6 4 9 1 7 -5 -6 -17 -8 -17 -64 12 -27 14 -45
26 -40 27 6 0 27 -9 48 -20z m3718 -9 c279 -57 344 -73 350 -82 4 -6 15 -8 25
-5 11 3 49 0 84 -8 36 -8 101 -22 145 -32 89 -19 98 -24 86 -42 -6 -10 -38 -6
-152 18 -79 18 -207 45 -284 60 -77 16 -180 38 -230 49 -49 10 -91 18 -92 17
-2 -1 -3 -163 -3 -360 -1 -317 -3 -357 -16 -352 -9 3 -18 6 -20 6 -2 0 -4 171
-4 381 0 222 4 378 9 375 5 -3 51 -15 102 -25z m409 9 c21 -39 -15 -85 -46
-59 -17 14 -18 33 -4 60 14 25 36 24 50 -1z m-4025 -20 c-3 -5 -13 -10 -21
-10 -8 0 -12 5 -9 10 3 6 13 10 21 10 8 0 12 -4 9 -10z m2217 -28 c7 -25 -9
-62 -26 -62 -22 0 -46 29 -46 55 0 46 61 52 72 7z m-2179 6 c-4 -7 -8 -16 -8
-20 0 -5 -3 -8 -7 -8 -5 0 -13 0 -19 0 -5 0 -7 5 -3 12 5 8 0 9 -14 6 -12 -4
-25 -2 -28 4 -4 6 8 9 29 7 20 -2 39 0 43 4 12 11 16 8 7 -5z m1494 -4 c-3 -3
-12 -4 -19 -1 -8 3 -5 6 6 6 11 1 17 -2 13 -5z m97 -25 c-4 -7 0 -9 12 -5 11
3 26 1 34 -4 13 -9 13 -10 0 -10 -13 0 -13 -2 0 -11 12 -9 11 -9 -5 -4 -11 4
-28 10 -37 12 -19 6 -23 15 -11 26 10 11 15 8 7 -4z m-1440 -51 c-5 -7 -2 -9
8 -6 9 4 15 0 15 -8 0 -8 -7 -14 -14 -14 -8 0 -11 -5 -7 -12 4 -7 3 -8 -5 -4
-6 4 -8 12 -5 18 7 11 -13 28 -35 28 -11 0 -9 -4 5 -15 10 -8 15 -14 9 -14 -5
0 -19 6 -29 14 -15 11 -16 15 -5 16 8 0 4 4 -8 9 -13 5 -23 15 -22 22 0 10 2
10 6 1 2 -7 12 -13 21 -12 11 0 12 2 5 6 -7 2 -13 8 -13 13 0 4 18 -1 40 -11
25 -12 38 -24 34 -31z m1601 12 c3 -5 2 -10 -4 -10 -5 0 -13 5 -16 10 -3 6 -2
10 4 10 5 0 13 -4 16 -10z m65 -62 c0 -10 -5 -16 -10 -13 -6 4 -8 11 -4 16 3
6 -4 8 -18 6 -12 -2 -17 -2 -10 0 6 3 12 8 12 13 0 5 7 7 15 4 8 -4 15 -15 15
-26z m-1610 12 c0 -5 -2 -10 -4 -10 -3 0 -8 5 -11 10 -3 6 -1 10 4 10 6 0 11
-4 11 -10z m155 -80 c4 -6 12 -10 18 -9 24 3 35 -2 63 -27 l29 -25 -27 12
c-16 7 -28 16 -28 22 0 5 -6 7 -12 5 -7 -3 -31 3 -53 13 -30 13 -35 18 -18 18
12 1 25 -4 28 -9z m15 -40 c8 -5 12 -11 10 -14 -3 -2 -14 2 -24 10 -22 15 -10
19 14 4z m35 -10 c3 -5 1 -10 -4 -10 -6 0 -11 5 -11 10 0 6 2 10 4 10 3 0 8
-4 11 -10z m5445 -11 c0 -6 9 -9 20 -6 11 3 20 1 20 -4 0 -5 -10 -9 -22 -10
-22 0 -22 -1 -3 -10 18 -9 18 -9 -3 -5 -13 2 -37 0 -54 -5 -18 -5 -34 -7 -36
-5 -2 3 15 10 39 17 l42 13 -29 13 -29 12 28 1 c15 0 27 -5 27 -11z m-5345
-10 c11 -17 -1 -21 -15 -4 -8 9 -8 15 -2 15 6 0 14 -5 17 -11z m5290 2 c16 -7
14 -9 -15 -14 -18 -4 -35 -5 -38 -2 -3 3 1 5 9 5 11 0 11 2 -1 10 -12 8 -12
10 5 9 11 0 29 -4 40 -8z m-5325 -11 c0 -5 -2 -10 -4 -10 -3 0 -8 5 -11 10 -3
6 -1 10 4 10 6 0 11 -4 11 -10z m5253 -7 c-7 -2 -19 -2 -25 0 -7 3 -2 5 12 5
14 0 19 -2 13 -5z m-5239 -15 c-5 -8 -2 -9 12 -4 30 13 65 15 58 4 -3 -5 -8
-7 -11 -4 -3 3 -14 1 -25 -5 -23 -13 -68 -1 -47 12 19 12 22 11 13 -3z m5146
-4 c-33 -10 -47 -11 -55 -2 -6 6 -6 9 0 6 6 -3 19 -2 30 3 11 4 31 7 45 7 18
0 12 -4 -20 -14z m-3420 2 c0 -3 -4 -8 -10 -11 -5 -3 -10 -1 -10 4 0 6 5 11
10 11 6 0 10 -2 10 -4z m-1648 -26 c-24 -23 -33 -25 -29 -7 2 10 19 20 46 26
3 1 -5 -8 -17 -19z m1711 5 c4 -8 3 -16 -1 -19 -4 -3 -9 4 -9 15 -2 23 3 25
10 4z m55 3 c-5 -15 -35 -19 -35 -4 0 7 9 13 19 13 11 1 18 -3 16 -9z m3222 2
c-8 -5 -28 -9 -45 -9 -30 2 -30 2 5 9 51 11 57 11 40 0z m160 5 c0 -2 -9 -9
-20 -15 -16 -9 -18 -8 -14 5 5 13 34 22 34 10z m-3302 -29 c3 -3 -3 -9 -13
-12 -9 -4 -20 -2 -25 6 -6 9 -13 9 -28 1 -30 -16 -34 -14 -14 7 13 14 24 17
46 11 16 -5 31 -11 34 -13z m3239 17 c-9 -2 -15 -8 -12 -12 2 -5 -20 -8 -50
-7 -30 0 -49 4 -43 7 6 4 26 7 45 7 19 0 37 3 40 6 4 3 13 5 22 5 13 -1 12 -2
-2 -6z m-5057 -23 c-10 -6 -9 -9 0 -15 7 -4 17 -1 22 6 8 11 9 11 5 -3 -4 -11
2 -18 16 -22 12 -3 18 -8 15 -11 -5 -5 -61 17 -76 30 -7 6 12 34 20 29 6 -4 6
-9 -2 -14z m4803 3 c-7 -2 -19 -2 -25 0 -7 3 -2 5 12 5 14 0 19 -2 13 -5z m47
3 c0 -2 -7 -6 -15 -10 -8 -3 -15 -1 -15 4 0 6 7 10 15 10 8 0 15 -2 15 -4z
m-4780 -16 c0 -5 9 -10 19 -10 11 0 23 -5 26 -10 4 -6 12 -7 18 -3 7 4 6 0 -2
-10 -7 -9 -10 -17 -5 -17 5 0 2 -5 -6 -11 -11 -8 -6 -9 20 -5 24 4 29 3 15 -3
-18 -7 -17 -9 13 -25 19 -10 32 -20 29 -22 -2 -3 -33 12 -68 32 -35 21 -57 40
-50 42 7 2 17 -1 21 -8 5 -8 9 -7 13 4 4 10 1 16 -7 16 -18 0 -65 39 -48 40 6
0 12 -4 12 -10z m4845 -12 c-9 -6 -19 -7 -22 -4 -4 3 -1 6 6 6 7 0 9 4 6 10
-4 6 1 7 11 3 15 -6 15 -7 -1 -15z m-222 -5 c-90 -15 -121 -34 -45 -28 20 1
27 0 15 -2 -13 -2 -23 -9 -23 -14 0 -5 -9 -9 -20 -9 -11 0 -20 5 -20 10 0 6
-10 14 -22 19 -17 6 -6 11 53 23 41 9 92 16 114 16 23 0 1 -6 -52 -15z m174
11 c-3 -3 -12 -4 -19 -1 -8 3 -5 6 6 6 11 1 17 -2 13 -5z m-82 -24 c-3 -5 -17
-10 -31 -10 -13 0 -24 -4 -24 -10 0 -5 -4 -10 -10 -10 -21 0 4 29 28 33 15 2
31 5 35 6 5 0 5 -3 2 -9z m-2898 -16 c-3 -3 -12 -4 -19 -1 -8 3 -5 6 6 6 11 1
17 -2 13 -5z m2680 -10 c-3 -3 -12 -4 -19 -1 -8 3 -5 6 6 6 11 1 17 -2 13 -5z
m-4337 -21 c0 -3 -7 -3 -15 1 -8 3 -15 1 -15 -5 0 -6 -5 -7 -11 -3 -8 4 -7 9
2 14 12 8 39 3 39 -7z m1790 5 c0 -5 3 -7 8 -6 4 1 20 -4 35 -10 16 -7 33 -12
38 -12 5 0 9 -4 9 -10 0 -12 -17 -13 -24 -1 -3 4 -27 14 -53 21 -56 15 -76 29
-39 27 14 -1 26 -5 26 -9z m2352 -10 c-7 -7 -27 -14 -45 -15 -17 -2 -50 -5
-72 -8 -37 -5 -37 -4 10 9 28 8 57 13 67 10 9 -3 19 0 23 6 3 5 11 10 18 10 8
0 8 -3 -1 -12z m208 2 c0 -5 -4 -10 -10 -10 -5 0 -10 5 -10 10 0 6 5 10 10 10
6 0 10 -4 10 -10z m-4315 -20 c3 -6 -1 -7 -9 -4 -18 7 -21 14 -7 14 6 0 13 -4
16 -10z m1740 0 c-3 -5 -14 -10 -23 -10 -15 0 -15 2 -2 10 20 13 33 13 25 0z
m2415 1 c0 -4 -26 -13 -57 -20 -31 -6 -65 -18 -75 -28 -19 -17 -26 -5 -7 14 9
9 6 11 -12 7 -24 -5 -24 -5 1 7 14 6 44 12 67 13 23 1 45 5 49 9 10 10 34 9
34 -2z m-4180 -21 c-8 -5 -19 -10 -25 -10 -5 0 -3 5 5 10 8 5 20 10 25 10 6 0
3 -5 -5 -10z m1882 -22 c-8 -8 -9 -4 -5 13 4 13 8 18 11 10 2 -7 -1 -18 -6
-23z m2084 5 c0 -1 -14 1 -31 4 -25 5 -26 7 -10 13 15 5 49 -8 41 -17z m-2046
6 c0 -5 5 -7 12 -3 7 5 8 3 3 -6 -6 -9 -2 -10 16 -5 23 7 24 7 4 -9 -11 -8
-14 -16 -7 -16 14 0 17 -40 2 -40 -5 0 -7 7 -4 15 5 12 -2 15 -30 15 -36 0
-47 12 -24 26 7 4 8 3 4 -4 -4 -7 -1 -12 8 -12 8 0 18 5 21 10 3 6 2 10 -3 10
-6 0 -12 7 -16 15 -3 8 -1 15 4 15 6 0 10 -5 10 -11z m1930 -9 c0 -5 -10 -10
-22 -10 -19 0 -20 2 -8 10 19 13 30 13 30 0z m50 -5 c0 -2 -6 -5 -13 -8 -8 -3
-14 1 -14 8 0 7 6 11 14 8 7 -3 13 -6 13 -8z m-2040 1 c0 -2 -7 -7 -16 -10 -8
-3 -12 -2 -9 4 6 10 25 14 25 6z m137 -42 c-4 -15 -5 -14 -6 4 -1 15 -5 21
-13 16 -7 -5 -8 -3 -3 5 10 18 28 -2 22 -25z m1808 27 c17 -7 16 -9 -9 -15
-16 -4 -31 -5 -34 -1 -3 3 3 5 14 6 15 1 13 3 -6 9 -20 6 -21 8 -5 8 11 0 29
-3 40 -7z m155 -1 c0 -5 -15 -10 -32 -9 -28 0 -30 2 -13 9 28 12 45 12 45 0z
m-276 -21 c11 -10 1 -14 -79 -26 -33 -6 -68 -13 -77 -18 -27 -11 -22 10 5 23
20 10 18 11 -18 11 -22 0 -49 -4 -60 -8 -17 -7 -16 -9 10 -15 l29 -7 -29 -13
c-40 -18 -116 -38 -121 -33 -18 18 56 74 108 82 18 3 56 9 83 13 54 10 134 5
149 -9z m322 -1 c-3 -13 -6 -26 -6 -30 0 -3 -8 -9 -17 -11 -14 -4 -14 -5 3 -6
25 -1 37 -33 24 -65 -7 -18 -21 -24 -77 -33 -37 -6 -75 -14 -84 -18 -21 -8
-28 10 -22 53 4 24 10 32 27 33 11 0 16 3 10 5 -6 2 -35 -2 -65 -9 -39 -11
-56 -11 -61 -3 -16 23 -7 35 30 41 20 4 53 12 72 18 19 6 43 10 54 8 10 -1 15
2 12 8 -4 6 3 9 16 9 13 -1 37 -1 53 0 23 2 27 4 15 12 -13 8 -12 10 4 10 14
0 17 -5 12 -22z m-270 -6 c-10 -2 -22 0 -28 6 -6 6 0 7 19 4 21 -5 23 -7 9
-10z m-1753 -12 c3 -11 1 -20 -4 -20 -5 0 -9 9 -9 20 0 11 2 20 4 20 2 0 6 -9
9 -20z m1837 5 c-19 -7 -53 -13 -75 -13 l-40 1 47 6 c26 4 50 10 54 14 4 4 17
7 28 6 15 0 11 -4 -14 -14z m-3050 -24 c0 -5 -21 -14 -47 -20 -40 -11 -48 -10
-62 5 -9 9 -11 14 -6 12 6 -3 19 -2 30 3 27 11 85 11 85 0z m-485 -19 c-3 -3
-11 0 -18 7 -9 10 -8 11 6 5 10 -3 15 -9 12 -12z m353 -1 c3 -9 -6 -11 -29 -9
-18 2 -34 9 -37 16 -3 10 5 12 29 10 18 -2 35 -10 37 -17z m1542 4 c7 -9 8
-15 2 -15 -5 0 -12 7 -16 15 -3 8 -4 15 -2 15 2 0 9 -7 16 -15z m-1904 -53
c-5 -4 -66 26 -66 33 0 3 16 -3 35 -12 19 -9 33 -18 31 -21z m4 28 c0 -5 -2
-10 -4 -10 -3 0 -8 5 -11 10 -3 6 -1 10 4 10 6 0 11 -4 11 -10z m30 0 c0 -5
-2 -10 -4 -10 -3 0 -8 5 -11 10 -3 6 -1 10 4 10 6 0 11 -4 11 -10z m3007 4
c-3 -3 -12 -4 -19 -1 -8 3 -5 6 6 6 11 1 17 -2 13 -5z m-87 -14 c0 -5 -5 -10
-11 -10 -5 0 -7 5 -4 10 3 6 8 10 11 10 2 0 4 -4 4 -10z m37 4 c-3 -3 -12 -4
-19 -1 -8 3 -5 6 6 6 11 1 17 -2 13 -5z m-1013 -15 c-4 -7 0 -9 12 -6 11 3 33
0 49 -7 l30 -13 -27 -8 c-28 -7 -39 -25 -16 -25 6 0 8 -3 5 -6 -9 -10 -57 24
-54 38 1 7 -9 14 -22 16 -19 3 -21 6 -10 13 20 12 42 11 33 -2z m1469 4 c-7
-2 -19 -2 -25 0 -7 3 -2 5 12 5 14 0 19 -2 13 -5z m-298 -13 c3 -6 -1 -7 -9
-4 -18 7 -21 14 -7 14 6 0 13 -4 16 -10z m-3015 -20 c0 -5 -4 -10 -10 -10 -5
0 -10 5 -10 10 0 6 5 10 10 10 6 0 10 -4 10 -10z m2624 -4 c-11 -8 -42 -17
-69 -20 -56 -7 -49 -1 22 18 65 18 71 18 47 2z m-639 -16 c2 -4 -7 -5 -20 -2
-14 2 -25 8 -25 12 0 10 38 1 45 -10z m1945 0 c0 -11 -4 -20 -9 -20 -5 0 -7 9
-4 20 3 11 7 20 9 20 2 0 4 -9 4 -20z m-3896 -1 c-4 -7 0 -9 14 -5 24 8 39
-11 23 -27 -8 -8 -11 -8 -11 2 0 8 -11 11 -36 7 -23 -4 -43 -1 -57 9 -26 18
-15 20 13 3 16 -10 23 -10 37 5 20 19 27 22 17 6z m2675 7 c-2 -2 -22 -6 -44
-10 -29 -5 -36 -4 -25 3 13 10 79 16 69 7z m-723 -37 c3 -5 1 -9 -5 -9 -5 0
-13 5 -16 10 -3 6 -15 10 -26 10 -10 0 -19 4 -19 9 0 12 57 -6 66 -20z m500
16 c-12 -9 -39 -15 -65 -14 l-46 1 54 9 c30 5 57 12 60 14 2 3 7 5 10 5 3 0
-3 -7 -13 -15z m-779 -32 c-3 -2 -16 1 -29 8 l-23 13 25 6 c23 6 41 -12 27
-27z m538 17 c8 -13 -5 -13 -25 0 -13 8 -13 10 2 10 9 0 20 -4 23 -10z m1018
-8 c-2 -10 -10 -19 -16 -19 -7 0 -20 -4 -29 -8 -14 -5 -18 -2 -18 13 0 20 15
28 52 31 11 1 15 -5 11 -17z m-751 1 c-10 -4 -9 -8 5 -19 16 -11 13 -12 -22
-8 -30 4 -36 3 -25 -5 8 -6 12 -11 8 -11 -3 0 -15 -3 -25 -6 -15 -5 -15 -4 -3
5 13 9 13 11 -2 11 -10 0 -18 4 -18 10 0 5 -8 7 -17 4 -15 -5 -15 -4 1 6 14
10 20 10 26 0 6 -9 14 -9 36 3 16 8 34 15 39 15 6 0 4 -2 -3 -5z m-2362 -13
c8 -5 11 -10 5 -10 -5 0 -17 5 -25 10 -8 5 -10 10 -5 10 6 0 17 -5 25 -10z
m1871 1 c-8 -5 -10 -14 -6 -21 5 -9 4 -11 -3 -6 -18 11 -14 36 6 36 13 0 14
-2 3 -9z m579 2 c0 -5 -13 -8 -30 -8 -16 0 -30 3 -30 8 0 4 14 7 30 7 17 0 30
-3 30 -7z m-2520 -7 c0 -2 -7 -7 -16 -10 -8 -3 -12 -2 -9 4 6 10 25 14 25 6z
m1991 -5 c-11 -7 -8 -11 10 -17 13 -4 29 -7 35 -6 6 1 11 -4 11 -11 0 -7 -10
-12 -21 -12 -33 1 -67 16 -61 26 4 5 0 9 -7 10 -7 0 -4 4 7 9 26 11 44 12 26
1z m-1851 -41 c0 -5 -9 -12 -20 -15 -11 -4 -18 -11 -15 -16 8 -12 -6 -11 -25
1 -12 8 -12 10 5 10 19 1 19 2 -4 20 -13 11 -19 20 -13 20 6 0 18 -7 26 -16 9
-8 20 -12 26 -9 6 4 1 14 -12 26 l-23 20 28 -17 c15 -9 27 -20 27 -24z m2077
15 c18 -18 17 -20 -17 -30 -23 -7 -24 -6 -11 9 13 15 13 19 0 27 -11 7 -11 9
-1 9 7 0 20 -7 29 -15z m-117 -15 c0 -5 -7 -7 -15 -4 -8 4 -15 8 -15 10 0 2 7
4 15 4 8 0 15 -4 15 -10z m1200 -35 c0 -14 -4 -25 -9 -25 -4 0 -6 11 -3 25 2
14 6 25 8 25 2 0 4 -11 4 -25z m-3151 -5 c-8 -6 2 -15 29 -29 22 -11 44 -26
48 -32 4 -6 -15 1 -42 16 -59 34 -73 45 -55 45 7 0 9 4 6 10 -3 6 1 7 10 3 12
-4 14 -8 4 -13z m301 -123 c0 -4 4 -6 8 -3 4 2 14 0 22 -6 12 -8 12 -9 -2 -4
-11 3 -18 0 -18 -8 0 -8 12 -17 26 -20 21 -6 24 -9 14 -21 -7 -8 -18 -15 -24
-14 -7 0 -6 2 2 6 17 7 15 23 -3 23 -8 0 -15 -5 -15 -11 0 -5 -5 -7 -11 -3 -8
4 -7 9 2 16 10 7 8 8 -8 5 -12 -3 -30 2 -40 10 -17 13 -17 14 2 5 23 -10 45
-5 45 10 0 6 -7 7 -16 4 -8 -3 -12 -2 -9 3 3 5 0 13 -6 17 -6 3 -15 0 -20 -7
-7 -11 -9 -9 -9 8 0 20 2 20 30 10 17 -6 30 -15 30 -20z m1383 -17 c3 -14 1
-20 -6 -17 -7 2 -14 14 -15 26 -4 28 13 20 21 -9z m-1286 -36 c2 -6 -9 -16
-24 -22 -25 -11 -26 -11 -9 2 10 8 15 20 11 27 -5 7 -3 10 5 7 8 -2 15 -9 17
-14z m73 -48 c14 -18 14 -19 -6 -8 -12 6 -25 8 -30 4 -5 -4 -2 1 5 11 8 9 14
16 15 15 1 -2 8 -12 16 -22z m-60 -6 c-13 -8 -12 -10 3 -10 9 0 17 -4 17 -10
0 -12 -10 -13 -29 -1 -15 10 -7 31 12 31 7 0 6 -4 -3 -10z m-55 -70 c3 -16 0
-20 -10 -16 -18 7 -20 -5 -3 -22 14 -14 5 -16 -20 -3 -9 5 -25 12 -34 15 -30
9 -20 32 20 42 44 12 42 13 47 -16z m75 20 c0 -5 -7 -10 -16 -10 -8 0 -12 5
-9 10 3 6 10 10 16 10 5 0 9 -4 9 -10z m40 -9 c0 -11 -35 -25 -67 -26 -12 -1
-19 3 -16 7 2 5 13 6 24 3 12 -4 21 -1 25 9 7 17 34 22 34 7z m-210 -21 c0 -5
-2 -10 -4 -10 -3 0 -8 5 -11 10 -3 6 -1 10 4 10 6 0 11 -4 11 -10z m4067 -16
c-3 -3 -12 -4 -19 -1 -8 3 -5 6 6 6 11 1 17 -2 13 -5z m-4209 -13 c11 -7 10
-9 -3 -14 -10 -5 -14 -3 -9 4 4 8 -7 9 -37 5 -31 -4 -38 -3 -24 3 26 12 56 13
73 2z m-102 -10 c-7 -11 -120 -35 -137 -29 -8 3 20 11 61 20 41 8 76 16 78 17
2 0 1 -3 -2 -8z m4226 -9 c9 -9 8 -12 -4 -12 -9 0 -20 5 -23 11 -4 6 -13 8
-19 6 -7 -3 -19 -1 -27 4 -9 5 -1 7 24 6 20 -2 43 -9 49 -15z m63 8 c13 -5 14
-9 5 -9 -8 0 -24 4 -35 9 -13 5 -14 9 -5 9 8 0 24 -4 35 -9z m-150 -10 c3 -5
-1 -10 -10 -10 -9 0 -13 5 -10 10 3 6 8 10 10 10 2 0 7 -4 10 -10z m-4070 -10
c-3 -5 -21 -9 -38 -9 l-32 1 30 8 c43 11 47 11 40 0z m4119 -7 c-5 -5 -12 -12
-16 -18 -4 -6 -8 -2 -8 8 0 9 7 17 17 17 9 0 12 -3 7 -7z m-4361 -10 c-7 -2
-19 -2 -25 0 -7 3 -2 5 12 5 14 0 19 -2 13 -5z m4242 -3 c-27 -12 -43 -12 -25
0 8 5 22 9 30 9 10 0 8 -3 -5 -9z m-4320 -15 c-43 -15 -149 -35 -174 -34 -29
1 22 18 59 19 19 1 51 7 70 14 19 8 46 14 60 14 19 1 15 -3 -15 -13z m235 -6
c13 -7 13 -8 0 -8 -8 0 -26 6 -40 15 l-25 15 25 -7 c14 -3 32 -10 40 -15z
m4115 11 c-4 -6 7 -8 27 -5 l33 5 -30 -14 c-21 -10 -32 -11 -37 -3 -7 11 -2
27 8 27 3 0 2 -4 -1 -10z m-4242 -7 c-7 -2 -21 -2 -30 0 -10 3 -4 5 12 5 17 0
24 -2 18 -5z m-83 -13 c0 -5 -5 -10 -11 -10 -5 0 -7 5 -4 10 3 6 8 10 11 10 2
0 4 -4 4 -10z m4300 -10 c0 -5 -8 -10 -18 -10 -10 0 -21 -3 -25 -6 -9 -10 -87
-11 -87 -2 0 9 21 12 63 9 15 -1 27 3 27 8 0 6 9 11 20 11 11 0 20 -4 20 -10z
m-4173 -6 c-3 -3 -12 -4 -19 -1 -8 3 -5 6 6 6 11 1 17 -2 13 -5z m-242 -25
c14 -6 10 -7 -14 -3 -19 3 -31 2 -28 -3 3 -5 -4 -10 -16 -10 -17 -2 -19 0 -7
7 15 10 -26 15 -95 12 -25 -1 -27 0 -10 7 23 9 140 2 170 -10z m4215 11 c0 -5
-5 -10 -11 -10 -5 0 -7 5 -4 10 3 6 8 10 11 10 2 0 4 -4 4 -10z m-4410 -20 c0
-12 -8 -12 -35 0 -18 8 -17 9 8 9 15 1 27 -3 27 -9z m240 0 c0 -5 -5 -10 -11
-10 -5 0 -7 5 -4 10 3 6 8 10 11 10 2 0 4 -4 4 -10z m4280 0 c-8 -5 -19 -10
-25 -10 -5 0 -3 5 5 10 8 5 20 10 25 10 6 0 3 -5 -5 -10z m-4553 -14 c13 -13
-7 -18 -22 -6 -8 7 -28 10 -44 8 -17 -3 -27 0 -24 5 6 9 80 4 90 -7z m163 -8
c20 -6 17 -7 -13 -4 -22 3 -35 1 -32 -5 4 -5 1 -9 -4 -9 -6 0 -11 4 -11 9 0 5
-12 14 -27 20 -24 8 -21 9 17 4 25 -3 56 -10 70 -15z m4280 12 c0 -5 -5 -10
-11 -10 -5 0 -7 5 -4 10 3 6 8 10 11 10 2 0 4 -4 4 -10z m70 -6 c0 -2 -7 -4
-15 -4 -8 0 -15 4 -15 10 0 5 7 7 15 4 8 -4 15 -8 15 -10z m-4655 -15 c-51
-10 -92 -10 -50 1 17 4 44 8 60 8 25 0 24 -2 -10 -9z m192 5 c-3 -3 -12 -4
-19 -1 -8 3 -5 6 6 6 11 1 17 -2 13 -5z m4263 -4 c-25 -7 -24 -9 20 -23 8 -3
0 -6 -17 -6 -18 -1 -33 4 -33 10 0 6 -7 9 -15 5 -8 -3 -15 -3 -15 0 0 8 43 23
65 22 16 0 15 -2 -5 -8z m-4223 -6 c-3 -3 -12 -4 -19 -1 -8 3 -5 6 6 6 11 1
17 -2 13 -5z m-187 -11 c0 -5 -14 -8 -31 -9 -20 -1 -26 2 -17 7 16 11 48 12
48 2z m90 -8 c-14 -8 -32 -14 -40 -14 -8 0 -1 7 15 14 39 18 57 18 25 0z
m-287 -28 c-3 -5 12 -7 33 -5 22 1 39 -1 39 -7 0 -5 -11 -9 -23 -7 -15 2 -21
-1 -17 -7 3 -6 1 -11 -4 -11 -6 0 -11 4 -11 9 0 5 -10 13 -21 16 -17 6 -19 9
-8 16 10 6 8 9 -8 9 -13 0 -23 -4 -23 -10 0 -5 -7 -10 -16 -10 -13 0 -14 3 -4
14 22 28 81 21 63 -7z m50 26 c-7 -2 -19 -2 -25 0 -7 3 -2 5 12 5 14 0 19 -2
13 -5z m4550 -13 c13 0 17 -4 12 -9 -12 -12 -65 -2 -65 11 0 6 7 7 16 4 9 -3
25 -6 37 -6z m-4686 -6 c-3 -3 -12 -4 -19 -1 -8 3 -5 6 6 6 11 1 17 -2 13 -5z
m218 -4 c-28 -12 -37 -12 -30 0 3 6 16 10 28 9 21 0 21 -1 2 -9z m60 1 c3 -6
-4 -9 -15 -8 -11 1 -20 5 -20 9 0 11 28 10 35 -1z m-335 -10 c0 -5 -33 -15
-72 -21 -40 -7 -77 -15 -83 -18 -5 -3 -5 0 1 7 6 6 37 16 69 21 32 5 60 12 63
15 8 8 22 6 22 -4z m140 -26 c15 -18 -1 -20 -18 -3 -10 10 -15 10 -22 -1 -7
-12 -10 -12 -23 1 -14 13 -12 15 18 16 18 1 39 -5 45 -13z m-325 -15 c-11 -5
-29 -8 -40 -8 -16 0 -15 2 5 8 34 11 60 11 35 0z m142 -11 c-9 -6 -15 -15 -11
-21 4 -6 -3 -5 -16 2 -17 9 -25 9 -34 -1 -6 -6 -6 -9 -1 -6 6 3 16 2 23 -2 7
-4 -5 -7 -27 -7 -34 0 -37 2 -23 13 10 7 13 13 7 13 -23 3 33 19 65 19 29 0
32 -1 17 -10z m-231 -6 c-15 -4 -16 -7 -5 -14 9 -6 -1 -8 -31 -5 -60 6 -62 8
-15 16 46 8 79 10 51 3z m104 -13 c8 -5 11 -10 5 -10 -5 0 -17 5 -25 10 -8 5
-10 10 -5 10 6 0 17 -5 25 -10z m4778 -32 c4 -15 7 -16 13 -7 4 8 11 10 15 6
4 -4 0 -15 -9 -24 -11 -11 -17 -13 -17 -5 0 7 -8 12 -17 12 -10 0 -23 11 -29
23 -10 22 -8 23 14 19 14 -3 27 -14 30 -24z m78 17 c17 -16 14 -18 -10 -9 -9
3 -16 10 -16 15 0 13 9 11 26 -6z m-4879 -1 c-3 -3 -12 -4 -19 -1 -8 3 -5 6 6
6 11 1 17 -2 13 -5z m3082 -27 c0 -21 -1 -21 -9 -2 -12 28 -12 37 0 30 6 -3
10 -16 9 -28z m-3336 16 c-7 -2 -19 -2 -25 0 -7 3 -2 5 12 5 14 0 19 -2 13 -5z
m211 0 c21 -4 25 -7 15 -14 -8 -5 -21 -9 -29 -9 -13 0 -13 1 0 10 13 8 13 10
-2 10 -9 0 -18 -4 -20 -9 -1 -5 -14 -11 -28 -14 -14 -2 -19 -2 -12 0 20 7 13
26 -8 20 -11 -3 -17 -1 -14 4 6 10 49 10 98 2z m4971 -3 c3 -5 1 -10 -4 -10
-6 0 -11 5 -11 10 0 6 2 10 4 10 3 0 8 -4 11 -10z m-5225 -9 c0 -5 -8 -7 -19
-4 -10 2 -25 -3 -34 -11 -8 -9 -19 -16 -24 -16 -4 1 3 10 16 20 24 21 61 27
61 11z m-90 -10 c0 -12 -80 -25 -106 -18 -11 3 -4 5 16 7 19 1 44 5 55 10 27
12 35 12 35 1z m160 -1 c0 -5 -4 -10 -9 -10 -5 0 -16 -3 -25 -6 -9 -3 -16 -1
-16 4 0 9 16 17 43 21 4 0 7 -3 7 -9z m-87 -17 c-7 -2 -19 -2 -25 0 -7 3 -2 5
12 5 14 0 19 -2 13 -5z m3499 -18 c3 -14 1 -25 -3 -25 -5 0 -9 11 -9 25 0 14
2 25 4 25 2 0 6 -11 8 -25z m1779 14 c17 -9 18 -13 7 -27 -11 -14 -11 -15 5
-9 11 4 20 1 23 -8 4 -8 12 -15 20 -15 17 0 18 12 2 28 -9 9 -9 12 0 12 21 0
26 -30 9 -48 -15 -14 -18 -14 -36 2 -12 11 -27 16 -37 12 -15 -6 -15 -4 1 20
l17 27 -26 -7 c-24 -6 -34 3 -19 17 8 9 11 9 34 -4z m-5481 -9 c0 -5 8 -10 17
-10 14 0 14 -3 5 -12 -9 -9 -15 -10 -20 -2 -4 6 -16 16 -27 22 -19 11 -19 11
3 12 12 0 22 -4 22 -10z m5547 4 c-3 -3 -12 -4 -19 -1 -8 3 -5 6 6 6 11 1 17
-2 13 -5z m-5307 -11 c-8 -3 -20 -10 -26 -14 -6 -5 -11 -4 -11 4 0 7 12 13 26
14 14 1 19 -1 11 -4z m5347 1 c-3 -3 -12 -4 -19 -1 -8 3 -5 6 6 6 11 1 17 -2
13 -5z m-5702 -13 c-16 -14 -55 -23 -55 -12 0 5 12 12 28 14 15 2 29 5 32 6 2
0 0 -3 -5 -8z m230 -1 l-30 -8 29 -1 c34 -1 32 -6 -5 -14 -21 -6 -28 -3 -32
13 -4 17 0 20 31 19 l37 -1 -30 -8z m5535 -12 c8 -3 -6 -4 -31 -4 -37 1 -43 3
-30 13 9 6 22 8 31 3 8 -4 22 -9 30 -12z m-5590 -3 c0 -8 -8 -15 -18 -15 -10
0 -23 -5 -29 -11 -6 -6 -19 -9 -29 -7 -13 3 -6 9 24 18 23 7 42 17 42 22 0 4
2 8 5 8 3 0 5 -7 5 -15z m-280 -10 c-43 -17 -50 -17 -50 -6 0 10 28 18 65 19
12 0 5 -5 -15 -13z m5915 -5 c3 -5 2 -10 -4 -10 -5 0 -13 5 -16 10 -3 6 -2 10
4 10 5 0 13 -4 16 -10z m-5978 -6 c-3 -3 -12 -4 -19 -1 -8 3 -5 6 6 6 11 1 17
-2 13 -5z m-44 -11 c-7 -2 -21 -2 -30 0 -10 3 -4 5 12 5 17 0 24 -2 18 -5z
m156 3 c-2 -2 -22 -6 -44 -9 -28 -5 -34 -4 -20 3 19 8 73 14 64 6z m5834 -3
c-7 -2 -19 -2 -25 0 -7 3 -2 5 12 5 14 0 19 -2 13 -5z m65 0 c-10 -2 -15 -10
-11 -19 3 -8 0 -14 -7 -14 -6 0 -8 5 -5 10 3 6 2 10 -4 10 -5 0 -11 -5 -13
-12 -3 -9 -6 -9 -12 0 -8 13 26 31 54 30 11 0 10 -2 -2 -5z m-6111 -9 c-3 -3
-12 -4 -19 -1 -8 3 -5 6 6 6 11 1 17 -2 13 -5z m113 -4 c0 -5 -4 -10 -10 -10
-5 0 -10 5 -10 10 0 6 5 10 10 10 6 0 10 -4 10 -10z m134 -11 c-29 -12 -36
-10 -22 5 7 7 19 11 27 8 11 -4 10 -7 -5 -13z m5770 -4 c-25 -19 -38 -19 -22
0 7 8 19 14 27 15 11 0 9 -4 -5 -15z m-5937 -1 c-3 -3 -12 -4 -19 -1 -8 3 -5
6 6 6 11 1 17 -2 13 -5z m86 -1 c-7 -2 -19 -2 -25 0 -7 3 -2 5 12 5 14 0 19
-2 13 -5z m6059 -25 c-26 -10 -39 -9 -22 2 10 6 11 10 3 10 -7 0 -13 4 -13 9
0 5 11 4 25 -2 21 -10 22 -13 7 -19z m-6327 12 c-4 -6 -15 -8 -25 -5 -11 3
-36 2 -57 -3 -48 -12 -138 -24 -131 -17 8 8 139 33 181 34 24 1 36 -3 32 -9z
m180 -6 c17 4 24 3 20 -4 -3 -5 -19 -10 -36 -10 -21 0 -29 5 -29 18 0 13 2 14
9 3 6 -9 18 -11 36 -7z m6020 -15 c11 -11 14 -19 8 -19 -7 0 -15 5 -18 10 -3
6 -15 10 -26 10 -10 0 -19 5 -19 11 0 6 -7 8 -16 5 -8 -3 -12 -2 -9 4 9 14 56
1 80 -21z m-5958 15 c-3 -3 -12 -4 -19 -1 -8 3 -5 6 6 6 11 1 17 -2 13 -5z
m6143 -14 c0 -5 -4 -10 -9 -10 -6 0 -13 5 -16 10 -3 6 1 10 9 10 9 0 16 -4 16
-10z m-6428 -20 c-10 -12 -18 -16 -21 -9 -2 6 3 15 10 20 24 15 29 10 11 -11z
m-75 3 c-26 -2 -45 -8 -42 -14 4 -5 2 -9 -4 -9 -16 0 -22 18 -9 23 7 3 33 5
58 4 l45 -1 -48 -3z m6470 1 c-3 -3 -12 -4 -19 -1 -8 3 -5 6 6 6 11 1 17 -2
13 -5z m82 2 c-2 -2 -17 -6 -34 -10 -22 -5 -26 -4 -15 4 14 9 59 15 49 6z
m-6722 -12 c-3 -3 -12 -4 -19 -1 -8 3 -5 6 6 6 11 1 17 -2 13 -5z m83 -4 c0
-5 -4 -10 -9 -10 -6 0 -13 5 -16 10 -3 6 1 10 9 10 9 0 16 -4 16 -10z m6511 1
c-9 -6 -10 -10 -2 -16 7 -4 18 -1 26 5 17 14 50 5 40 -10 -3 -5 -12 -10 -18
-10 -7 0 -6 4 3 10 13 9 13 10 0 10 -9 0 -20 -4 -26 -10 -7 -7 -25 -5 -54 5
-25 8 -33 12 -18 10 15 -3 30 -1 33 5 3 5 12 10 18 10 8 0 8 -3 -2 -9z m164
-9 c-3 -3 -11 0 -18 7 -9 10 -8 11 6 5 10 -3 15 -9 12 -12z m-6842 -3 c-6 -6
-29 -15 -50 -19 -21 -4 -46 -11 -55 -15 -11 -4 -18 -3 -18 3 0 6 21 14 48 18
26 3 54 10 62 15 21 12 26 11 13 -2z m167 -24 c8 -9 9 -15 2 -15 -6 0 -14 5
-18 11 -3 6 -15 9 -25 6 -11 -3 -17 -1 -13 4 8 14 40 11 54 -6z m6746 -14 c0
-16 -3 -18 -20 -9 -20 11 -20 11 -1 19 11 4 20 8 20 8 1 1 1 -8 1 -18z m-7053
2 c-7 -2 -21 -2 -30 0 -10 3 -4 5 12 5 17 0 24 -2 18 -5z m364 1 c-3 -3 -12
-4 -19 -1 -8 3 -5 6 6 6 11 1 17 -2 13 -5z m6523 -4 c0 -5 -4 -10 -10 -10 -5
0 -10 5 -10 10 0 6 5 10 10 10 6 0 10 -4 10 -10z m215 -8 c-3 -3 -11 0 -18 7
-9 10 -8 11 6 5 10 -3 15 -9 12 -12z m-6818 2 c-3 -3 -12 -4 -19 -1 -8 3 -5 6
6 6 11 1 17 -2 13 -5z m-274 -11 c-7 -2 -21 -2 -30 0 -10 3 -4 5 12 5 17 0 24
-2 18 -5z m-186 -9 c-3 -3 -12 -4 -19 -1 -8 3 -5 6 6 6 11 1 17 -2 13 -5z
m298 -4 c4 -7 -3 -8 -22 -4 -38 9 -42 14 -10 14 14 0 29 -5 32 -10z m6949 -13
c13 3 26 0 30 -5 4 -6 -2 -8 -14 -5 -11 3 -20 1 -20 -5 0 -5 11 -13 25 -16 24
-6 36 -26 15 -26 -5 0 -10 4 -10 9 0 5 -13 12 -28 16 -20 4 -28 12 -29 28 0
12 1 17 3 11 3 -6 15 -9 28 -7z m-7164 -7 c0 -5 -7 -10 -15 -10 -8 0 -15 5
-15 10 0 6 7 10 15 10 8 0 15 -4 15 -10z m-152 -8 c8 -6 -3 -12 -32 -19 -25
-5 -43 -6 -40 -2 3 5 13 9 22 10 14 0 13 2 -3 9 -17 7 -16 9 10 9 17 0 36 -3
43 -7z m-95 -9 c-7 -2 -19 -2 -25 0 -7 3 -2 5 12 5 14 0 19 -2 13 -5z m-68
-12 c-11 -5 -40 -11 -65 -14 l-45 -6 50 14 c56 15 91 18 60 6z m305 -6 c-7 -8
-22 -15 -34 -15 -17 1 -16 3 9 15 39 18 40 18 25 0z m-273 -12 c-9 -2 -14 -9
-11 -15 4 -7 2 -8 -5 -4 -15 10 -4 26 17 25 15 -1 15 -2 -1 -6z m-160 -9 c-3
-3 -12 -4 -19 -1 -8 3 -5 6 6 6 11 1 17 -2 13 -5z m253 -4 c0 -5 -4 -10 -9
-10 -6 0 -13 5 -16 10 -3 6 1 10 9 10 9 0 16 -4 16 -10z m54 -12 c-3 -4 -11
-5 -19 -1 -21 7 -19 12 4 10 11 0 18 -5 15 -9z m-184 -8 c-8 -5 -26 -9 -40 -9
-23 0 -23 1 -5 9 11 5 29 9 40 9 17 1 17 -1 5 -9z m-5 -20 c-3 -5 -14 -10 -23
-9 -14 0 -13 2 3 9 27 11 27 11 20 0z m5162 -102 c-2 -13 -4 -3 -4 22 0 25 2
35 4 23 2 -13 2 -33 0 -45z m-102 2 c15 -6 11 -8 -16 -7 -21 1 -35 5 -32 10 5
9 22 8 48 -3z m-105 -20 c13 -9 13 -11 0 -20 -19 -13 -30 -13 -30 0 0 6 5 10
12 10 6 0 9 3 6 6 -4 3 -16 1 -27 -5 -17 -10 -20 -9 -15 4 7 17 32 19 54 5z
m420 0 c0 -5 -5 -10 -11 -10 -5 0 -7 5 -4 10 3 6 8 10 11 10 2 0 4 -4 4 -10z
m-495 -10 c-3 -5 -11 -10 -16 -10 -6 0 -7 5 -4 10 3 6 11 10 16 10 6 0 7 -4 4
-10z m555 -1 c12 -9 10 -10 -8 -6 -17 4 -22 2 -18 -8 5 -13 -13 -25 -37 -25
-7 0 -6 4 3 10 13 9 13 10 0 10 -9 1 -5 6 10 15 30 17 31 17 50 4z m-138 -19
c-12 -11 -27 -20 -34 -20 -7 0 -2 9 12 20 33 26 50 26 22 0z m-471 -4 c5 3 9
3 9 1 0 -3 -18 -14 -40 -24 -27 -14 -42 -17 -50 -9 -7 7 -10 6 -10 -2 0 -7 -4
-12 -10 -12 -5 0 -7 7 -4 15 4 9 14 13 23 11 9 -3 27 3 41 14 14 10 27 15 28
9 2 -5 8 -7 13 -3z m529 10 c0 -3 -4 -8 -10 -11 -5 -3 -10 -1 -10 4 0 6 5 11
10 11 6 0 10 -2 10 -4z m120 -6 c0 -5 -7 -10 -16 -10 -8 0 -12 5 -9 10 3 6 10
10 16 10 5 0 9 -4 9 -10z m-490 -10 c0 -5 -2 -10 -4 -10 -3 0 -8 5 -11 10 -3
6 -1 10 4 10 6 0 11 -4 11 -10z m-136 -22 c-5 -8 0 -9 15 -5 15 4 26 -1 34
-14 6 -10 21 -19 32 -19 17 0 17 -2 5 -10 -22 -14 -28 -12 -35 10 -4 12 -15
20 -28 19 -12 0 -16 -3 -9 -6 6 -2 10 -9 6 -14 -10 -16 -24 -10 -24 11 0 12
-7 20 -17 21 -15 0 -15 2 2 9 27 12 27 12 19 -2z m116 2 c0 -5 -7 -7 -15 -4
-8 4 -15 8 -15 10 0 2 7 4 15 4 8 0 15 -4 15 -10z m70 -9 c0 -10 -24 -21 -46
-21 -8 0 -14 5 -14 11 0 5 4 8 9 4 5 -3 12 -1 16 5 8 12 35 13 35 1z m326 -16
c3 -14 22 -37 40 -52 19 -14 31 -29 28 -34 -2 -5 14 -2 37 6 23 8 45 15 50 15
5 0 9 -62 9 -138 l0 -139 -39 -11 c-56 -17 -56 -17 -147 41 l-83 52 -1 62 c0
59 2 63 25 69 14 3 25 11 25 16 0 6 -7 7 -15 4 -8 -3 -21 -8 -27 -11 -10 -4
-13 12 -13 59 -1 72 9 84 72 85 27 1 34 -4 39 -24z m-734 -17 c-27 -17 -36
-18 -45 -8 -9 10 -9 11 0 6 7 -4 23 0 35 8 12 9 27 16 33 16 5 0 -5 -10 -23
-22z m863 -8 c-3 -5 -11 -10 -16 -10 -6 0 -7 5 -4 10 3 6 11 10 16 10 6 0 7
-4 4 -10z m205 -26 c0 -3 -5 -2 -10 1 -6 4 -17 1 -25 -5 -12 -10 -15 -10 -15
2 0 8 3 18 6 21 7 6 44 -10 44 -19z m-1543 1 c3 -9 -3 -25 -12 -35 -15 -16
-21 -18 -33 -7 -13 10 -14 9 -7 -3 6 -12 5 -13 -5 -3 -11 10 -10 16 6 34 10
13 13 19 5 14 -10 -5 -12 -4 -7 3 10 17 46 15 53 -3z m398 0 c-16 -8 -36 -14
-42 -15 -7 0 -13 -4 -13 -10 0 -5 -7 -10 -16 -10 -8 0 -13 4 -10 9 4 5 0 12
-6 15 -7 3 -3 3 10 0 13 -3 22 -1 22 6 0 6 4 9 9 6 5 -4 20 -2 33 3 36 15 47
11 13 -4z m80 1 c-11 -7 -38 -16 -60 -19 -40 -6 -39 -6 10 12 62 23 75 25 50
7z m250 4 c-27 -12 -43 -12 -25 0 8 5 22 9 30 9 10 0 8 -3 -5 -9z m-229 -25
c-11 -8 -25 -15 -30 -15 -6 1 0 7 14 15 32 19 40 18 16 0z m84 6 c0 -12 -66
-34 -83 -28 -6 3 -2 6 11 6 12 1 25 8 28 16 7 16 44 21 44 6z m935 -10 c-3 -6
-15 -11 -26 -11 -11 0 -17 5 -14 10 4 6 10 8 15 5 5 -3 12 0 15 6 4 5 9 8 12
5 3 -2 2 -9 -2 -15z m65 9 c8 -5 11 -10 5 -10 -5 0 -17 5 -25 10 -8 5 -10 10
-5 10 6 0 17 -5 25 -10z m-1285 -10 c3 -5 1 -10 -4 -10 -6 0 -11 5 -11 10 0 6
2 10 4 10 3 0 8 -4 11 -10z m-35 -10 c-8 -5 -19 -10 -25 -10 -5 0 -3 5 5 10 8
5 20 10 25 10 6 0 3 -5 -5 -10z m316 -15 c-36 -19 -45 -19 -20 0 10 8 26 14
34 15 8 0 2 -7 -14 -15z m974 5 c0 -5 -4 -10 -9 -10 -6 0 -13 5 -16 10 -3 6 1
10 9 10 9 0 16 -4 16 -10z m-1330 -16 c0 -2 -9 -4 -20 -4 -11 0 -20 4 -20 9 0
5 9 7 20 4 11 -3 20 -7 20 -9z m246 1 c-23 -17 -36 -19 -36 -6 0 5 8 12 18 14
32 9 37 6 18 -8z m1221 -21 c10 -10 9 -13 -4 -18 -9 -4 -18 -4 -21 -1 -3 3 0
5 7 5 9 0 7 5 -3 16 -9 8 -20 13 -24 10 -5 -3 -9 1 -9 9 0 11 5 12 21 3 11 -6
26 -17 33 -24z m-187 16 c0 -5 -7 -10 -15 -10 -8 0 -15 5 -15 10 0 6 7 10 15
10 8 0 15 -4 15 -10z m-1282 -13 l34 2 -23 -20 c-22 -19 -44 -22 -37 -5 2 4
-8 14 -22 23 -14 8 -17 11 -5 7 11 -4 35 -7 53 -7z m305 6 c-7 -2 -19 -2 -25
0 -7 3 -2 5 12 5 14 0 19 -2 13 -5z m-410 -15 c3 -9 -7 -14 -27 -15 l-31 -2
25 13 c14 8 26 14 26 15 1 1 4 -5 7 -11z m32 2 c3 -5 2 -10 -4 -10 -5 0 -13 5
-16 10 -3 6 -2 10 4 10 5 0 13 -4 16 -10z m335 6 c0 -11 -19 -15 -25 -6 -3 5
1 10 9 10 9 0 16 -2 16 -4z m1070 0 c0 -3 -4 -8 -10 -11 -5 -3 -10 -1 -10 4 0
6 5 11 10 11 6 0 10 -2 10 -4z m210 -40 c7 -9 21 -16 31 -16 10 0 21 -4 24
-10 18 -29 -59 6 -90 40 l-20 23 21 -11 c11 -6 26 -18 34 -26z m-270 13 c0 -5
5 -7 10 -4 6 3 10 1 10 -4 0 -16 -16 -13 -30 4 -9 10 -9 15 -1 15 6 0 11 -5
11 -11z m70 -8 c0 -4 -9 -12 -20 -19 -12 -7 -20 -8 -20 -2 0 5 5 10 11 10 5 0
8 4 5 8 -3 5 1 9 9 9 8 0 15 -3 15 -6z m-1983 -29 c9 -39 -49 -73 -63 -37 -7
17 14 47 27 39 5 -3 6 1 3 9 -3 8 2 14 11 14 8 0 18 -12 22 -25z m443 18 c0
-5 -10 -10 -22 -10 -19 0 -20 2 -8 10 19 13 30 13 30 0z m347 3 c-9 -8 -107
-39 -107 -33 0 4 10 11 23 14 21 7 21 8 3 15 -13 5 -2 7 31 7 28 -1 51 -2 50
-3z m1428 -43 c20 -4 25 -8 15 -12 -19 -7 -88 22 -95 41 -4 10 2 9 22 -4 15
-10 41 -21 58 -25z m-1825 26 c0 -3 -4 -8 -10 -11 -5 -3 -10 -1 -10 4 0 6 5
11 10 11 6 0 10 -2 10 -4z m1610 -6 c0 -5 -5 -10 -11 -10 -5 0 -7 5 -4 10 3 6
8 10 11 10 2 0 4 -4 4 -10z m-1643 -6 c-3 -3 -12 -4 -19 -1 -8 3 -5 6 6 6 11
1 17 -2 13 -5z m93 -3 c0 -10 -25 -21 -48 -21 -12 1 -10 5 8 15 29 17 40 18
40 6z m1835 -18 c18 -14 18 -15 2 -9 -10 3 -23 6 -28 6 -5 0 -9 5 -9 10 0 14
12 12 35 -7z m-1913 -11 c-2 -9 4 -12 18 -8 11 3 30 9 41 12 14 4 19 2 15 -5
-4 -6 -16 -11 -27 -11 -21 0 -26 -16 -6 -23 6 -2 -5 -12 -25 -21 -20 -10 -42
-15 -48 -11 -16 10 -1 25 26 25 27 0 32 15 8 24 -26 10 -51 7 -64 -9 -15 -18
-63 -20 -58 -2 3 6 15 14 28 15 13 2 30 10 38 18 17 18 58 14 54 -4z m1768 13
c0 -3 -15 -12 -32 -20 l-33 -14 46 -20 c26 -12 53 -28 60 -38 13 -15 -49 16
-104 53 -18 12 -18 12 2 19 12 3 21 11 21 16 0 5 9 9 20 9 11 0 20 -2 20 -5z
m19 -31 c-28 -15 -39 -17 -39 -6 0 10 43 29 54 24 5 -3 -2 -11 -15 -18z
m-1594 6 c13 -6 15 -9 5 -9 -8 0 -22 4 -30 9 -18 12 -2 12 25 0z m1758 -11 c4
-16 3 -18 -9 -8 -7 6 -11 15 -8 20 8 13 11 11 17 -12z m-113 2 c0 -5 -7 -12
-16 -15 -24 -9 -28 -7 -14 9 14 17 30 20 30 6z m-1753 -7 c-3 -3 -12 -4 -19
-1 -8 3 -5 6 6 6 11 1 17 -2 13 -5z m83 2 c0 -3 -4 -8 -10 -11 -5 -3 -10 -1
-10 4 0 6 5 11 10 11 6 0 10 -2 10 -4z m-43 -22 c-3 -3 -12 -4 -19 -1 -8 3 -5
6 6 6 11 1 17 -2 13 -5z m1813 2 c0 -3 -4 -8 -10 -11 -5 -3 -10 -1 -10 4 0 6
5 11 10 11 6 0 10 -2 10 -4z m119 -22 c14 -12 -19 -1 -35 12 -18 14 -18 14 6
3 14 -6 27 -13 29 -15z m-2256 -1 c-7 -2 -21 -2 -30 0 -10 3 -4 5 12 5 17 0
24 -2 18 -5z m77 -8 c10 -12 9 -15 -8 -15 -11 0 -28 3 -37 6 -13 5 -14 8 -3
15 19 13 34 11 48 -6z m2085 5 c-27 -12 -43 -12 -25 0 8 5 22 9 30 9 10 0 8
-3 -5 -9z m65 -6 c0 -2 -9 -4 -21 -4 -11 0 -18 4 -14 10 5 8 35 3 35 -6z
m-1981 2 c-12 -10 -60 -16 -54 -6 3 5 18 10 32 10 15 0 24 -2 22 -4z m1846
-18 c14 -6 25 -15 25 -19 0 -4 -13 -1 -30 7 -45 23 -41 33 5 12z m-1915 -2 c0
-2 -15 -9 -32 -15 -30 -10 -31 -9 -14 4 18 14 46 20 46 11z m-380 -16 c0 -13
-11 -13 -30 0 -12 8 -11 10 8 10 12 0 22 -4 22 -10z m-30 -15 l35 -13 -32 -1
c-18 -1 -33 4 -33 10 0 6 -7 8 -16 5 -8 -3 -12 -2 -9 4 8 12 11 12 55 -5z
m330 5 c0 -5 -7 -10 -15 -10 -8 0 -15 5 -15 10 0 6 7 10 15 10 8 0 15 -4 15
-10z m1985 -8 c-3 -3 -11 0 -18 7 -9 10 -8 11 6 5 10 -3 15 -9 12 -12z m-2411
-15 c11 -10 3 -13 -42 -15 -31 -1 -53 1 -49 4 4 4 20 7 37 6 16 0 30 4 30 9 0
13 9 11 24 -4z m386 9 c0 -3 -4 -8 -10 -11 -5 -3 -10 -1 -10 4 0 6 5 11 10 11
6 0 10 -2 10 -4z m-330 -16 c0 -5 -7 -7 -15 -4 -8 4 -15 8 -15 10 0 2 7 4 15
4 8 0 15 -4 15 -10z m53 -7 c-7 -2 -21 -2 -30 0 -10 3 -4 5 12 5 17 0 24 -2
18 -5z m2392 -13 c3 -5 2 -10 -4 -10 -5 0 -13 5 -16 10 -3 6 -2 10 4 10 5 0
13 -4 16 -10z m75 0 c-8 -5 -19 -10 -25 -10 -5 0 -3 5 5 10 8 5 20 10 25 10 6
0 3 -5 -5 -10z m240 -24 c22 -27 -5 -17 -31 10 -21 24 -22 26 -3 16 11 -6 26
-18 34 -26z m-2603 18 c-3 -3 -12 -4 -19 -1 -8 3 -5 6 6 6 11 1 17 -2 13 -5z
m80 0 c-3 -3 -12 -4 -19 -1 -8 3 -5 6 6 6 11 1 17 -2 13 -5z m-407 -13 c0 -5
-9 -7 -20 -4 -11 3 -20 7 -20 9 0 2 9 4 20 4 11 0 20 -4 20 -9z m290 -1 c0 -5
-4 -10 -9 -10 -6 0 -13 5 -16 10 -3 6 1 10 9 10 9 0 16 -4 16 -10z m-334 -9
c5 -5 18 -11 29 -14 13 -3 9 -5 -12 -6 -18 0 -33 4 -33 10 0 6 -7 8 -16 5 -8
-3 -12 -2 -9 4 8 12 28 13 41 1z m374 -1 c0 -5 -8 -10 -17 -10 -15 0 -16 2 -3
10 19 12 20 12 20 0z m2387 -7 c2 -6 -4 -13 -13 -17 -14 -5 -15 -4 -5 8 8 10
9 16 1 19 -6 3 -5 4 2 3 6 -1 13 -7 15 -13z m-2783 -32 c-6 -6 -64 21 -64 30
0 5 15 1 34 -9 19 -9 32 -19 30 -21z m2976 30 c0 -5 -6 -14 -14 -20 -12 -10
-13 -8 -9 8 5 21 23 30 23 12z m-3032 -26 c2 -2 -7 -2 -21 -1 -13 0 -24 6 -24
13 0 9 6 9 21 1 12 -6 22 -12 24 -13z m402 21 c0 -3 -4 -8 -10 -11 -5 -3 -10
-1 -10 4 0 6 5 11 10 11 6 0 10 -2 10 -4z m2655 -16 c-3 -5 -12 -10 -18 -10
-7 0 -6 4 3 10 19 12 23 12 15 0z m-2958 -6 c-3 -3 -12 -4 -19 -1 -8 3 -5 6 6
6 11 1 17 -2 13 -5z m63 -8 c0 -2 -9 -6 -20 -9 -11 -3 -20 -1 -20 4 0 5 9 9
20 9 11 0 20 -2 20 -4z m2730 0 c0 -3 -4 -8 -10 -11 -5 -3 -10 -1 -10 4 0 6 5
11 10 11 6 0 10 -2 10 -4z m30 -11 c-7 -8 -17 -15 -23 -15 -6 0 -2 7 9 15 25
19 30 19 14 0z m65 7 c6 -4 12 -17 12 -29 2 -22 1 -22 -25 -6 -40 25 -40 25
-7 18 29 -6 29 -6 11 9 -20 16 -11 23 9 8z m-3105 -22 c0 -4 -11 -5 -25 -2
-14 2 -23 8 -20 12 6 10 45 1 45 -10z m327 14 c-3 -3 -12 -4 -19 -1 -8 3 -5 6
6 6 11 1 17 -2 13 -5z m91 1 c-3 -3 -20 -10 -38 -15 -19 -5 -29 -6 -24 -1 12
12 74 27 62 16z m2918 -33 c-4 -3 -12 0 -18 6 -14 14 -32 16 -23 3 3 -5 2 -12
-3 -15 -4 -2 -8 6 -8 19 0 23 1 23 29 8 16 -8 26 -17 23 -21z m-3046 19 c0 -5
-8 -12 -17 -15 -10 -3 0 -3 22 -1 l40 5 -33 -15 c-26 -11 -36 -12 -46 -3 -9 9
-10 16 -2 25 13 14 36 17 36 4z m2835 -60 c-6 -5 -85 42 -85 50 0 5 20 -4 44
-19 24 -15 42 -29 41 -31z m-3262 2 c-3 -7 -9 -13 -14 -13 -4 0 -5 7 -2 17 4
11 3 14 -5 9 -7 -4 -17 -4 -23 0 -8 4 -7 9 2 14 16 11 48 -10 42 -27z m3535
12 c1 -1 -11 -2 -26 -1 -19 1 -28 5 -25 13 4 10 10 10 26 1 12 -6 23 -12 25
-13z m-3468 5 c0 -5 -5 -10 -11 -10 -5 0 -7 5 -4 10 3 6 8 10 11 10 2 0 4 -4
4 -10z m3395 0 c-3 -5 -11 -10 -16 -10 -6 0 -7 5 -4 10 3 6 11 10 16 10 6 0 7
-4 4 -10z m-3348 -6 c-3 -3 -12 -4 -19 -1 -8 3 -5 6 6 6 11 1 17 -2 13 -5z
m3302 -16 c-6 -13 -13 -24 -14 -26 -1 -1 -15 5 -31 13 -22 12 -24 16 -9 14 34
-3 46 1 40 11 -3 6 1 10 10 10 13 0 14 -4 4 -22z m-3192 6 c-3 -3 -12 -4 -19
-1 -8 3 -5 6 6 6 11 1 17 -2 13 -5z m63 -4 c-12 -8 -12 -10 -1 -10 8 0 12 -2
9 -5 -3 -4 -18 -3 -34 1 -25 6 -26 8 -9 15 11 4 27 8 35 8 13 1 13 0 0 -9z
m-399 -17 c10 -12 10 -15 1 -9 -14 8 -52 -1 -52 -13 0 -5 12 -7 28 -5 16 2 19
1 7 -2 -11 -3 -24 -10 -29 -15 -6 -5 -17 -9 -25 -8 -11 0 -10 3 4 9 18 8 17 9
-8 9 -29 1 -34 21 -6 29 11 3 11 2 -1 -7 -25 -18 3 -11 35 9 17 10 31 19 31
19 1 1 8 -7 15 -16z m3489 -46 c0 -8 -3 -8 -8 -1 -4 5 -24 18 -44 27 -20 10
-40 22 -44 28 -3 6 17 -1 45 -15 28 -15 51 -32 51 -39z m-3150 41 c0 -11 -32
-10 -48 1 -9 5 -3 8 17 7 17 -1 31 -4 31 -8z m3391 -15 c9 -7 26 -16 38 -18
22 -4 90 -55 74 -55 -5 0 -19 9 -31 21 -12 11 -26 17 -31 14 -5 -3 -13 0 -16
6 -4 5 -14 8 -23 4 -9 -3 -13 -3 -10 1 9 8 -19 37 -30 30 -5 -3 -9 1 -9 9 0
15 11 11 38 -12z m-3851 -7 c0 -2 -7 -7 -16 -10 -8 -3 -12 -2 -9 4 6 10 25 14
25 6z m411 -16 c-24 -11 -48 -20 -55 -20 -16 1 66 38 84 39 8 0 -5 -8 -29 -19z
m-394 -6 c-3 -3 -12 -4 -19 -1 -8 3 -5 6 6 6 11 1 17 -2 13 -5z m118 -4 c3 -6
-1 -7 -9 -4 -18 7 -21 14 -7 14 6 0 13 -4 16 -10z m3520 -10 c-3 -5 -13 -6
-21 -3 -12 4 -13 8 -3 14 15 9 32 2 24 -11z m-3386 -6 c10 -9 -35 -3 -49 6
-11 8 -7 9 15 4 17 -4 32 -8 34 -10z m3462 -12 c-6 -11 -8 -22 -5 -25 3 -3 -5
-3 -18 1 -17 5 -19 7 -6 10 9 2 20 12 23 23 4 11 9 18 12 16 2 -3 0 -14 -6
-25z m-3391 14 c0 -2 -9 -6 -20 -9 -11 -3 -18 -1 -14 4 5 9 34 13 34 5z m3355
-6 c-3 -5 -10 -10 -16 -10 -5 0 -9 5 -9 10 0 6 7 10 16 10 8 0 12 -4 9 -10z
m-3540 -20 c-3 -5 -10 -10 -16 -10 -5 0 -9 5 -9 10 0 6 7 10 16 10 8 0 12 -4
9 -10z m68 4 c-7 -3 -10 -11 -7 -19 4 -10 -1 -12 -17 -8 -21 6 -21 7 -4 20 11
7 24 13 29 12 6 0 6 -3 -1 -5z m3713 -22 c-4 -3 -14 2 -24 12 -16 18 -16 18 6
6 13 -6 21 -14 18 -18z m84 8 c13 -9 13 -10 0 -10 -12 0 -13 -2 -1 -9 11 -7
-20 -8 -58 -2 -2 1 2 8 9 16 14 17 29 19 50 5z m-105 -29 c-6 -5 -25 10 -25
20 0 5 6 4 14 -3 8 -7 12 -15 11 -17z m-3905 9 c0 -5 -7 -10 -15 -10 -8 0 -15
5 -15 10 0 6 7 10 15 10 8 0 15 -4 15 -10z m118 -25 c-2 -1 -16 -5 -31 -9 -24
-6 -26 -5 -16 7 8 8 22 12 32 9 10 -2 16 -6 15 -7z m3677 5 c-3 -5 -12 -10
-18 -10 -7 0 -6 4 3 10 19 12 23 12 15 0z m-3780 -10 c-3 -5 -13 -10 -21 -10
-8 0 -12 5 -9 10 3 6 13 10 21 10 8 0 12 -4 9 -10z m3845 -10 c-33 -26 -49
-26 -19 0 13 10 29 19 34 19 6 1 -1 -8 -15 -19z m-4294 -28 c-2 -9 -11 -18
-22 -19 -18 -3 -18 -2 1 6 19 9 19 10 -2 10 -12 1 -25 -3 -28 -9 -8 -13 -25
-13 -25 0 0 5 16 12 35 16 20 4 32 10 28 17 -3 5 -1 7 5 4 5 -4 9 -15 8 -25z
m60 13 c17 -13 16 -14 -13 -4 -34 11 -42 19 -20 19 7 0 22 -7 33 -15z m419 5
c-3 -5 -10 -10 -16 -10 -5 0 -9 5 -9 10 0 6 7 10 16 10 8 0 12 -4 9 -10z
m3825 -15 c-7 -9 -15 -13 -19 -10 -3 3 1 10 9 15 21 14 24 12 10 -5z m-3870 1
c0 -2 -9 -6 -20 -9 -11 -3 -20 -1 -20 4 0 5 9 9 20 9 11 0 20 -2 20 -4z m-385
-16 c-3 -5 -13 -10 -21 -10 -8 0 -12 5 -9 10 3 6 13 10 21 10 8 0 12 -4 9 -10z
m220 -20 l-20 -9 20 0 c17 -1 17 -3 5 -11 -10 -6 -16 -6 -18 0 -2 6 -13 10
-25 11 -21 0 -21 1 -2 9 11 5 29 9 40 9 l20 0 -20 -9z m55 0 c0 -5 -8 -10 -17
-10 -15 0 -16 2 -3 10 19 12 20 12 20 0z m4057 -7 c11 -4 14 -3 9 5 -5 8 -2
10 9 5 13 -4 14 -8 4 -14 -8 -4 -10 -11 -6 -16 4 -4 17 -2 27 5 11 6 26 9 35
6 25 -10 17 -22 -12 -17 -26 4 -24 2 12 -21 23 -15 49 -24 60 -21 11 3 14 2 7
-1 -6 -3 -10 -10 -6 -15 3 -5 3 -9 0 -9 -6 0 -61 31 -111 61 -16 10 -40 23
-52 29 -25 10 -32 26 -8 16 8 -3 22 -9 32 -13z m284 7 c25 -14 24 -24 -3 -39
-20 -10 -20 -11 -3 -7 11 2 29 7 40 11 11 3 7 -1 -8 -10 -16 -9 -36 -14 -45
-10 -15 6 -14 9 8 27 22 19 23 21 4 16 -13 -3 -21 0 -21 8 0 17 3 17 28 4z
m-4461 -20 c0 -5 10 -11 23 -11 20 -1 20 -2 2 -6 -11 -3 -24 -9 -29 -14 -13
-12 -26 -11 -26 1 0 6 8 11 18 11 16 1 16 2 -1 6 -9 2 -15 9 -12 14 8 12 25
12 25 -1z m-503 -45 c-7 -14 -15 -25 -19 -25 -4 0 -2 11 4 25 6 14 15 25 19
25 4 0 2 -11 -4 -25z m5037 10 c-4 -8 -8 -15 -10 -15 -2 0 -4 7 -4 15 0 8 4
15 10 15 5 0 7 -7 4 -15z m-4987 -11 c-3 -3 -12 -4 -19 -1 -8 3 -5 6 6 6 11 1
17 -2 13 -5z m213 -10 c0 -2 -12 -4 -26 -4 -14 0 -23 4 -20 9 6 8 46 4 46 -5z
m4747 10 c-3 -3 -12 -4 -19 -1 -8 3 -5 6 6 6 11 1 17 -2 13 -5z m-4657 -35
c-41 -16 -84 -29 -95 -29 -21 1 130 57 155 58 8 1 -19 -12 -60 -29z m-470 11
c-12 -8 -12 -10 -1 -10 8 0 12 -2 10 -5 -3 -2 -16 -1 -29 2 -22 6 -23 7 -4 14
27 11 42 10 24 -1z m5286 -42 c1 -7 -10 -14 -25 -15 l-26 -1 25 14 c14 7 22
13 18 14 -3 0 -14 3 -24 7 -12 4 -15 3 -10 -5 4 -7 3 -12 -2 -12 -16 0 -21 12
-9 25 10 10 16 10 31 -1 11 -7 21 -19 22 -26z m-236 16 c0 -8 -4 -12 -10 -9
-5 3 -10 10 -10 16 0 5 5 9 10 9 6 0 10 -7 10 -16z m-45 -5 c11 -17 2 -18 -25
-4 -24 14 -24 14 -3 15 12 0 25 -5 28 -11z m-5095 -19 c18 -12 2 -12 -25 0
-13 6 -15 9 -5 9 8 0 22 -4 30 -9z m90 -20 c0 -5 -7 -10 -15 -10 -8 0 -15 5
-15 10 0 6 7 10 15 10 8 0 15 -4 15 -10z m132 -10 c10 0 18 -4 18 -9 0 -6 -12
-6 -30 0 -16 6 -30 16 -30 22 0 7 4 7 12 -1 7 -7 20 -12 30 -12z m102 4 c3 -7
-5 -9 -20 -6 -25 4 -34 -12 -11 -21 6 -3 8 -6 2 -6 -5 0 -17 4 -25 9 -13 9
-13 11 -1 19 11 7 7 10 -15 14 -16 2 -8 4 18 3 26 0 50 -6 52 -12z m4816 6 c8
-5 11 -10 5 -10 -5 0 -17 5 -25 10 -8 5 -10 10 -5 10 6 0 17 -5 25 -10z m102
-40 c34 -35 41 -37 90 -35 50 2 51 1 24 -10 l-29 -12 22 -13 c13 -6 20 -14 18
-17 -7 -7 -97 46 -125 73 -13 13 -29 22 -35 20 -7 -1 -9 -1 -4 1 13 8 8 23 -8
23 -8 0 -15 -5 -15 -11 0 -5 -5 -7 -12 -3 -9 6 -9 9 1 12 11 4 11 6 0 14 -10
6 -6 7 11 2 14 -3 42 -23 62 -44z m155 18 c-3 -7 -5 -2 -5 12 0 14 2 19 5 13
2 -7 2 -19 0 -25z m-5547 12 c-13 -9 -13 -10 0 -10 13 0 13 -1 0 -10 -8 -5
-22 -9 -30 -9 -10 0 -8 3 5 9 l20 9 -20 1 -20 1 20 9 c27 12 43 12 25 0z m537
4 c-3 -3 -12 -4 -19 -1 -8 3 -5 6 6 6 11 1 17 -2 13 -5z m4893 -14 c0 -5 -4
-10 -10 -10 -5 0 -10 5 -10 10 0 6 5 10 10 10 6 0 10 -4 10 -10z m205 0 c3 -5
2 -10 -4 -10 -5 0 -13 5 -16 10 -3 6 -2 10 4 10 5 0 13 -4 16 -10z m70 -31 c5
-5 -5 -4 -23 2 -17 6 -32 13 -32 16 0 7 43 -8 55 -18z m-5318 -5 c-16 -9 -31
-13 -34 -10 -3 3 5 10 18 15 37 15 47 12 16 -5z m5250 10 c-3 -3 -12 -4 -19
-1 -8 3 -5 6 6 6 11 1 17 -2 13 -5z m-5392 -34 c-11 -5 -27 -9 -35 -9 -9 0 -8
4 5 9 11 5 27 9 35 9 9 0 8 -4 -5 -9z m62 -6 c-3 -3 -12 -4 -19 -1 -8 3 -5 6
6 6 11 1 17 -2 13 -5z m-573 -19 c-10 -8 -26 -14 -34 -14 -9 0 -4 6 10 14 33
19 49 19 24 0z m456 11 c0 -2 -7 -7 -16 -10 -8 -3 -12 -2 -9 4 6 10 25 14 25
6z m65 -6 c3 -5 -1 -10 -10 -10 -9 0 -13 5 -10 10 3 6 8 10 10 10 2 0 7 -4 10
-10z m-490 -20 c-3 -5 -14 -10 -23 -10 -15 0 -15 2 -2 10 20 13 33 13 25 0z
m435 -5 c-14 -7 -27 -11 -30 -9 -6 7 22 24 40 23 9 0 5 -6 -10 -14z m-510 -15
c-8 -5 -19 -10 -25 -10 -5 0 -3 5 5 10 8 5 20 10 25 10 6 0 3 -5 -5 -10z m450
0 c0 -5 -2 -10 -4 -10 -2 0 -12 -3 -22 -7 -16 -6 -17 -5 -4 10 17 19 30 22 30
7z m5545 1 c3 -5 -4 -13 -16 -16 -23 -8 -34 -1 -24 14 8 13 32 14 40 2z
m-5638 -35 c1 -1 -17 -2 -40 -2 -23 0 -51 -4 -61 -9 -14 -6 -17 -5 -12 3 16
26 82 31 113 8z m5533 14 c8 -5 11 -10 5 -10 -5 0 -17 5 -25 10 -8 5 -10 10
-5 10 6 0 17 -5 25 -10z m45 -8 c-3 -3 -11 0 -18 7 -9 10 -8 11 6 5 10 -3 15
-9 12 -12z m55 -7 c-7 -8 -20 -15 -28 -15 -13 0 -12 -3 4 -15 17 -14 17 -14
-11 -3 -16 6 -34 16 -40 21 -7 7 -6 8 1 4 7 -4 27 0 45 8 43 18 44 18 29 0z
m-6154 -16 c4 -7 0 -9 -12 -5 -30 9 -97 -11 -117 -35 -10 -12 -20 -20 -22 -17
-11 11 49 57 78 61 60 7 66 7 73 -4z m469 -9 c-28 -12 -37 -12 -30 0 3 6 16
10 28 9 21 0 21 -1 2 -9z m-515 -19 c0 -5 -9 -7 -20 -4 -11 3 -20 7 -20 9 0 2
9 4 20 4 11 0 20 -4 20 -9z m45 -1 c-3 -5 -11 -10 -16 -10 -6 0 -7 5 -4 10 3
6 11 10 16 10 6 0 7 -4 4 -10z m280 -20 c-11 -5 -29 -8 -40 -8 -16 0 -15 2 5
8 34 11 60 11 35 0z m55 3 c0 -9 -52 -35 -58 -29 -2 3 9 11 25 20 33 18 33 18
33 9z m-120 -22 c0 -5 -8 -12 -17 -15 -10 -3 0 -3 22 -1 l40 5 -30 -13 c-22
-10 -35 -11 -48 -3 -16 10 -16 12 0 24 20 14 33 16 33 3z m-492 -40 c9 -5 4
-8 -16 -7 -17 1 -28 4 -25 9 6 9 25 9 41 -2z m292 -21 c8 -5 11 -10 5 -10 -5
0 -17 5 -25 10 -8 5 -10 10 -5 10 6 0 17 -5 25 -10z m115 0 c-11 -5 -27 -9
-35 -9 -9 0 -8 4 5 9 11 5 27 9 35 9 9 0 8 -4 -5 -9z m-115 -32 c10 -6 7 -7
-10 -2 -14 3 -32 11 -40 16 -10 6 -7 7 10 2 14 -3 32 -11 40 -16z m50 12 c-20
-13 -33 -13 -25 0 3 6 14 10 23 10 15 0 15 -2 2 -10z m-570 -10 c-8 -5 -22
-10 -30 -10 -13 0 -13 1 0 10 8 5 22 10 30 10 13 0 13 -1 0 -10z m26 -14 c0
-14 -6 -22 -13 -19 -7 3 -13 7 -13 9 0 4 23 33 26 34 1 0 1 -11 0 -24z m-78 2
c-2 -8 6 -12 22 -11 22 2 23 2 5 -6 -11 -5 -25 -5 -31 0 -13 11 -74 0 -74 -12
0 -5 8 -6 18 -2 13 5 15 3 5 -7 -6 -7 -19 -10 -29 -6 -24 9 -5 27 44 42 20 7
38 12 40 13 1 1 1 -5 0 -11z m507 2 c-3 -5 -10 -10 -16 -10 -5 0 -9 5 -9 10 0
6 7 10 16 10 8 0 12 -4 9 -10z m-47 -42 c-15 -5 -34 -6 -42 -1 -10 6 -1 9 27
9 38 1 40 0 15 -8z m-111 -10 c-18 -6 -32 -7 -38 -1 -5 5 6 9 28 10 37 0 38 0
10 -9z m-497 -22 c8 -3 4 -4 -10 -1 -13 2 -36 1 -49 -2 -23 -6 -24 -7 -6 -14
15 -6 16 -8 4 -8 -9 -1 -21 5 -27 12 -8 10 -6 13 10 14 12 1 26 7 31 12 6 6
15 7 21 2 6 -5 18 -11 26 -15z m557 18 c-3 -3 -12 -4 -19 -1 -8 3 -5 6 6 6 11
1 17 -2 13 -5z m-127 -14 c0 -5 -7 -10 -15 -10 -8 0 -15 -5 -15 -12 0 -6 -2
-9 -5 -6 -3 3 -3 13 1 22 7 17 34 22 34 6z m45 -10 c3 -5 -1 -10 -10 -10 -9 0
-13 5 -10 10 3 6 8 10 10 10 2 0 7 -4 10 -10z m42 4 c-3 -3 -12 -4 -19 -1 -8
3 -5 6 6 6 11 1 17 -2 13 -5z m-157 -44 c13 -1 13 -2 0 -9 -8 -5 -26 -12 -40
-15 -23 -7 -24 -6 -7 8 14 11 15 15 5 19 -7 2 -4 3 7 1 11 -2 27 -4 35 -4z
m-85 -10 c3 -5 1 -10 -4 -10 -6 0 -11 5 -11 10 0 6 2 10 4 10 3 0 8 -4 11 -10z
m-531 -19 c4 -5 -3 -7 -14 -4 -23 6 -26 13 -6 13 8 0 17 -4 20 -9z m-25 -12
c24 -9 29 -14 19 -20 -19 -13 -36 -11 -18 2 11 8 8 9 -15 4 -16 -3 -38 -8 -49
-12 -12 -3 -16 -1 -12 6 4 6 19 11 34 12 l27 1 -25 8 c-14 4 -18 8 -9 9 9 1
31 -4 48 -10z m431 -10 c0 -9 -33 -29 -49 -29 -15 0 -9 22 9 36 15 12 40 8 40
-7z m-73 -35 c-3 -3 -12 -4 -19 -1 -8 3 -5 6 6 6 11 1 17 -2 13 -5z m80 0 c-3
-3 -12 -4 -19 -1 -8 3 -5 6 6 6 11 1 17 -2 13 -5z m-651 -26 c0 -13 -5 -26
-10 -29 -11 -9 -105 -4 -114 6 -4 4 19 5 51 3 32 -3 53 -1 46 3 -8 5 -6 9 7
12 10 3 -1 3 -26 1 l-45 -4 40 14 c54 19 53 19 51 -6z m574 2 c0 -5 -8 -10
-17 -10 -15 0 -16 2 -3 10 19 12 20 12 20 0z m-740 -45 c0 -3 -9 -14 -20 -25
-23 -23 -25 -37 -7 -43 7 -2 6 -3 -3 -3 -22 2 -24 35 -3 56 17 18 33 25 33 15z
m505 -13 c-3 -3 -11 0 -18 7 -9 10 -8 11 6 5 10 -3 15 -9 12 -12z m-38 2 c-3
-3 -12 -4 -19 -1 -8 3 -5 6 6 6 11 1 17 -2 13 -5z m83 -14 c-20 -13 -33 -13
-25 0 3 6 14 10 23 10 15 0 15 -2 2 -10z m-53 -16 c-3 -3 -12 -4 -19 -1 -8 3
-5 6 6 6 11 1 17 -2 13 -5z m-40 -10 c-3 -3 -12 -4 -19 -1 -8 3 -5 6 6 6 11 1
17 -2 13 -5z m-120 -30 c-3 -3 -12 -4 -19 -1 -8 3 -5 6 6 6 11 1 17 -2 13 -5z
m-47 -11 c-8 -3 -24 -10 -35 -15 -20 -9 -20 -9 -1 6 11 9 27 16 35 15 14 0 14
-1 1 -6z m47 -9 c-3 -3 -12 -4 -19 -1 -8 3 -5 6 6 6 11 1 17 -2 13 -5z m-121
-43 c-3 -5 -16 -11 -28 -14 -22 -6 -22 -5 -4 8 22 17 40 20 32 6z m-96 -21 c8
-5 11 -10 5 -10 -5 0 -17 5 -25 10 -8 5 -10 10 -5 10 6 0 17 -5 25 -10z m-53
-6 c-3 -3 -12 -4 -19 -1 -8 3 -5 6 6 6 11 1 17 -2 13 -5z m-90 -10 c-3 -3 -12
-4 -19 -1 -8 3 -5 6 6 6 11 1 17 -2 13 -5z m73 -18 c8 -3 3 -4 -12 -1 -22 4
-26 2 -22 -10 5 -11 2 -13 -10 -9 -19 7 -20 11 -3 28 6 8 17 11 22 6 6 -4 17
-10 25 -14z m-100 -42 c-47 -20 -61 -17 -20 4 19 10 39 16 44 14 5 -3 -6 -11
-24 -18z"/>
<path d="M894 4775 c22 -17 40 -20 32 -6 -3 5 -16 11 -28 14 -22 6 -22 5 -4
-8z"/>
<path d="M1965 4220 c27 -12 43 -12 25 0 -8 5 -22 9 -30 9 -10 0 -8 -3 5 -9z"/>
<path d="M6595 3690 c-13 -5 -14 -9 -5 -9 8 0 24 4 35 9 13 5 14 9 5 9 -8 0
-24 -4 -35 -9z"/>
<path d="M4970 3630 c13 -8 12 -10 -4 -10 -11 0 -17 -2 -14 -5 3 -4 18 -3 34
1 25 6 26 8 9 15 -28 11 -43 10 -25 -1z"/>
<path d="M5170 3510 c8 -5 20 -10 25 -10 6 0 3 5 -5 10 -8 5 -19 10 -25 10 -5
0 -3 -5 5 -10z"/>
<path d="M3626 3161 c-15 -6 -16 -10 -7 -16 7 -4 16 -3 20 3 3 5 15 12 26 15
l20 5 -20 0 c-11 0 -29 -3 -39 -7z"/>
<path d="M6920 2800 c0 -5 5 -10 10 -10 6 0 10 5 10 10 0 6 -4 10 -10 10 -5 0
-10 -4 -10 -10z"/>
<path d="M5485 2120 c3 -5 12 -7 20 -3 21 7 19 13 -6 13 -11 0 -18 -4 -14 -10z"/>
<path d="M5643 1870 c0 -25 2 -35 4 -22 2 12 2 32 0 45 -2 12 -4 2 -4 -23z"/>
<path d="M4288 1953 c7 -3 16 -2 19 1 4 3 -2 6 -13 5 -11 0 -14 -3 -6 -6z"/>
<path d="M7046 1491 c-4 -5 3 -7 14 -4 23 6 26 13 6 13 -8 0 -17 -4 -20 -9z"/>
<path d="M7448 1133 c7 -3 16 -2 19 1 4 3 -2 6 -13 5 -11 0 -14 -3 -6 -6z"/>
<path d="M1769 4884 c30 -13 56 -23 58 -20 4 4 -92 46 -104 45 -4 0 16 -11 46
-25z"/>
<path d="M1860 4845 c14 -8 30 -14 35 -14 6 0 -1 6 -15 14 -14 8 -29 14 -35
14 -5 0 1 -6 15 -14z"/>
<path d="M1940 4810 c8 -5 20 -10 25 -10 6 0 3 5 -5 10 -8 5 -19 10 -25 10 -5
0 -3 -5 5 -10z"/>
<path d="M2000 4785 c14 -8 30 -14 35 -14 6 0 -1 6 -15 14 -14 8 -29 14 -35
14 -5 0 1 -6 15 -14z"/>
<path d="M1125 4691 c-6 -11 13 -26 22 -18 7 8 64 -44 58 -53 -2 -4 7 -5 20
-2 18 3 31 -3 48 -24 21 -24 28 -27 48 -18 21 10 20 12 -30 37 -29 14 -58 24
-66 21 -7 -3 -16 -1 -20 5 -3 7 0 8 9 5 30 -12 16 4 -21 23 -21 11 -44 18 -52
15 -8 -3 -11 0 -7 7 4 6 5 11 2 11 -3 0 -7 -4 -11 -9z m190 -109 c-3 -3 -11 0
-18 7 -9 10 -8 11 6 5 10 -3 15 -9 12 -12z"/>
<path d="M1236 4665 c10 -8 23 -15 28 -15 6 0 1 7 -10 15 -10 8 -23 15 -28 15
-6 0 -1 -7 10 -15z"/>
<path d="M1300 4636 c0 -3 14 -12 30 -21 17 -9 30 -13 30 -11 0 3 -13 12 -30
21 -16 9 -30 13 -30 11z"/>
<path d="M1471 4594 c0 -11 3 -14 6 -6 3 7 2 16 -1 19 -3 4 -6 -2 -5 -13z"/>
<path d="M3076 4325 c10 -8 26 -14 34 -14 9 0 4 6 -10 14 -33 19 -49 19 -24 0z"/>
<path d="M3160 4290 c19 -11 40 -19 45 -19 6 0 -6 8 -25 19 -19 11 -39 19 -45
19 -5 0 6 -8 25 -19z"/>
<path d="M3226 4262 c13 -12 116 -53 121 -49 4 4 -113 57 -125 57 -3 0 -2 -4
4 -8z"/>
<path d="M3396 4255 c-3 -8 -1 -15 4 -15 6 0 10 7 10 15 0 8 -2 15 -4 15 -2 0
-6 -7 -10 -15z"/>
<path d="M3360 4206 c0 -2 7 -7 16 -10 8 -3 12 -2 9 4 -6 10 -25 14 -25 6z"/>
<path d="M3500 4146 c0 -2 7 -7 16 -10 8 -3 12 -2 9 4 -6 10 -25 14 -25 6z"/>
<path d="M3548 4123 c7 -3 16 -2 19 1 4 3 -2 6 -13 5 -11 0 -14 -3 -6 -6z"/>
<path d="M3913 4034 c0 -7 17 -19 37 -27 29 -11 40 -12 53 -2 10 7 29 10 45 8
25 -4 25 -3 -7 12 -40 18 -63 19 -79 3 -8 -8 -12 -8 -12 -1 0 6 -8 13 -18 15
-11 3 -19 0 -19 -8z"/>
<path d="M7703 3937 c-60 -17 -63 -26 -4 -13 27 6 53 14 57 19 9 9 -1 8 -53
-6z"/>
<path d="M4050 3910 c8 -5 20 -10 25 -10 6 0 3 5 -5 10 -8 5 -19 10 -25 10 -5
0 -3 -5 5 -10z"/>
<path d="M7580 3910 c-20 -6 -21 -8 -5 -8 11 0 29 3 40 8 25 11 -1 11 -35 0z"/>
<path d="M4210 3901 c0 -6 5 -12 10 -12 20 -3 25 -4 38 -13 16 -10 23 -4 14
11 -10 16 -62 28 -62 14z"/>
<path d="M4094 3893 c10 -10 209 -93 213 -89 2 2 -20 13 -49 26 -29 12 -77 33
-106 46 -54 25 -71 29 -58 17z"/>
<path d="M7490 3890 c-20 -6 -21 -8 -5 -8 11 0 31 4 45 8 20 6 21 8 5 8 -11 0
-31 -4 -45 -8z"/>
<path d="M7438 3873 c7 -3 16 -2 19 1 4 3 -2 6 -13 5 -11 0 -14 -3 -6 -6z"/>
<path d="M7398 3863 c7 -3 16 -2 19 1 4 3 -2 6 -13 5 -11 0 -14 -3 -6 -6z"/>
<path d="M7310 3850 l-25 -8 25 -1 c14 0 32 4 40 9 13 9 13 10 0 9 -8 -1 -26
-5 -40 -9z"/>
<path d="M3328 3843 c7 -3 16 -2 19 1 4 3 -2 6 -13 5 -11 0 -14 -3 -6 -6z"/>
<path d="M7225 3830 c-25 -11 1 -11 35 0 20 6 21 8 5 8 -11 0 -29 -3 -40 -8z"/>
<path d="M4375 3770 c33 -16 65 -29 70 -29 13 1 -107 57 -120 57 -5 0 17 -13
50 -28z"/>
<path d="M4470 3729 c12 -8 9 -9 -12 -5 l-28 6 0 -145 c0 -133 6 -166 25 -134
4 5 12 8 18 6 5 -1 21 7 35 20 14 13 31 23 38 23 10 0 14 13 14 42 0 23 3 39
6 35 8 -8 34 18 34 33 0 6 11 5 31 -5 17 -9 38 -15 47 -13 8 2 -13 14 -49 28
-49 19 -65 30 -67 47 -3 18 0 22 15 17 10 -3 0 4 -21 15 -46 24 -50 25 -40 10
4 -7 2 -10 -5 -8 -7 3 -12 8 -11 13 2 10 -20 26 -35 26 -5 0 -3 -5 5 -11z m2
-184 c3 -14 1 -25 -3 -25 -5 0 -9 11 -9 25 0 14 2 25 4 25 2 0 6 -11 8 -25z"/>
<path d="M7220 3644 c0 -35 4 -53 10 -49 12 8 11 105 -2 105 -4 0 -8 -25 -8
-56z"/>
<path d="M4610 3670 c8 -5 20 -10 25 -10 6 0 3 5 -5 10 -8 5 -19 10 -25 10 -5
0 -3 -5 5 -10z"/>
<path d="M3000 3630 c0 -5 7 -10 16 -10 8 0 12 5 9 10 -3 6 -10 10 -16 10 -5
0 -9 -4 -9 -10z"/>
<path d="M4873 3625 c0 -8 4 -12 9 -9 5 3 6 10 3 15 -9 13 -12 11 -12 -6z"/>
<path d="M7227 3563 c-11 -11 -8 -153 3 -153 6 0 10 33 10 80 0 80 -1 86 -13
73z"/>
<path d="M5047 3539 c7 -7 15 -10 18 -7 3 3 -2 9 -12 12 -14 6 -15 5 -6 -5z"/>
<path d="M5785 3510 c-25 -11 1 -11 35 0 20 6 21 8 5 8 -11 0 -29 -3 -40 -8z"/>
<path d="M4802 3483 c2 -9 9 -18 16 -21 18 -6 15 25 -4 32 -11 4 -14 1 -12
-11z"/>
<path d="M5695 3490 l-20 -9 20 0 c11 0 29 4 40 9 l20 9 -20 0 c-11 0 -29 -4
-40 -9z"/>
<path d="M5120 3480 c8 -5 20 -10 25 -10 6 0 3 5 -5 10 -8 5 -19 10 -25 10 -5
0 -3 -5 5 -10z"/>
<path d="M5130 3450 c8 -5 20 -10 25 -10 6 0 3 5 -5 10 -8 5 -19 10 -25 10 -5
0 -3 -5 5 -10z"/>
<path d="M5515 3450 c-25 -11 1 -11 35 0 20 6 21 8 5 8 -11 0 -29 -3 -40 -8z"/>
<path d="M7227 3383 c-11 -10 -8 -83 3 -83 6 0 10 20 10 45 0 46 -2 50 -13 38z"/>
<path d="M7220 3275 c0 -8 5 -15 10 -15 6 0 10 7 10 15 0 8 -4 15 -10 15 -5 0
-10 -7 -10 -15z"/>
<path d="M3860 3162 c0 -34 -22 -56 -76 -77 -30 -12 -32 -14 -9 -9 17 3 45 15
63 26 26 16 32 26 32 54 0 19 -2 34 -5 34 -3 0 -5 -13 -5 -28z"/>
<path d="M3550 3090 c0 -5 7 -10 15 -10 8 0 15 5 15 10 0 6 -7 10 -15 10 -8 0
-15 -4 -15 -10z"/>
<path d="M3667 3058 c-7 -5 -2 -8 14 -8 14 0 30 -5 36 -11 8 -8 13 -8 17 0 4
6 1 11 -6 11 -9 0 -9 3 2 10 11 8 7 10 -18 8 -18 -1 -38 -6 -45 -10z"/>
<path d="M3585 3040 l-20 -9 20 0 c11 0 29 4 40 9 l20 9 -20 0 c-11 0 -29 -4
-40 -9z"/>
<path d="M3490 3020 l-25 -8 25 0 c14 0 34 3 45 8 l20 9 -20 -1 c-11 0 -31 -4
-45 -8z"/>
<path d="M3405 3000 c-13 -5 -14 -9 -5 -9 8 0 24 4 35 9 13 5 14 9 5 9 -8 0
-24 -4 -35 -9z"/>
<path d="M3310 2980 c-20 -6 -21 -8 -5 -8 11 0 31 4 45 8 20 6 21 8 5 8 -11 0
-31 -4 -45 -8z"/>
<path d="M3215 2960 c-25 -11 1 -11 35 0 20 6 21 8 5 8 -11 0 -29 -3 -40 -8z"/>
<path d="M3120 2940 c-20 -6 -21 -8 -5 -8 11 0 31 4 45 8 20 6 21 8 5 8 -11 0
-31 -4 -45 -8z"/>
<path d="M3030 2920 c-20 -6 -21 -8 -5 -8 11 0 31 4 45 8 20 6 21 8 5 8 -11 0
-31 -4 -45 -8z"/>
<path d="M2935 2900 l-20 -9 20 1 c11 0 31 4 45 8 l25 8 -25 0 c-14 0 -34 -3
-45 -8z"/>
<path d="M2840 2880 c-20 -6 -21 -8 -5 -8 11 0 31 4 45 8 20 6 21 8 5 8 -11 0
-31 -4 -45 -8z"/>
<path d="M2745 2860 c-14 -7 -8 -8 20 -3 22 3 42 7 44 9 9 8 -45 2 -64 -6z"/>
<path d="M2688 2843 c7 -3 16 -2 19 1 4 3 -2 6 -13 5 -11 0 -14 -3 -6 -6z"/>
<path d="M2565 2820 c-25 -11 1 -11 35 0 20 6 21 8 5 8 -11 0 -29 -3 -40 -8z"/>
<path d="M2470 2800 c-11 -7 -5 -8 20 -4 43 8 51 14 19 14 -13 0 -31 -5 -39
-10z"/>
<path d="M2380 2780 c-11 -7 -5 -8 20 -4 43 8 51 14 19 14 -13 0 -31 -5 -39
-10z"/>
<path d="M2313 2769 c-18 -5 -33 -12 -33 -15 0 -9 53 5 65 17 10 10 11 10 -32
-2z"/>
<path d="M2178 2741 c-43 -10 -81 -21 -85 -26 -5 -4 1 -5 12 -2 11 3 47 11 80
17 33 7 67 16 75 21 20 11 10 10 -82 -10z"/>
<path d="M1987 2700 c-43 -10 -81 -21 -85 -26 -4 -4 0 -5 8 -2 8 3 48 11 88
18 39 7 72 17 72 22 0 4 -1 7 -2 7 -2 -1 -38 -9 -81 -19z"/>
<path d="M6984 2679 c26 -16 139 -60 143 -55 2 2 -27 16 -64 31 -85 34 -103
40 -79 24z"/>
<path d="M1800 2660 c-41 -10 -92 -21 -114 -24 -21 -4 -36 -10 -33 -12 7 -7
205 34 226 46 21 13 9 11 -79 -10z"/>
<path d="M1525 2600 c-94 -24 -61 -24 40 -1 44 11 69 19 55 19 -14 0 -56 -8
-95 -18z"/>
<path d="M7140 2617 c0 -7 180 -80 185 -75 3 2 -34 20 -82 39 -48 19 -90 36
-95 37 -4 2 -8 2 -8 -1z"/>
<path d="M1335 2559 c-54 -14 -60 -17 -25 -13 53 7 120 23 120 29 0 8 -19 4
-95 -16z"/>
<path d="M1205 2533 c-11 -3 -24 -9 -29 -14 -8 -7 45 3 79 16 15 5 -27 4 -50
-2z"/>
<path d="M7347 2529 c7 -7 15 -10 18 -7 3 3 -2 9 -12 12 -14 6 -15 5 -6 -5z"/>
<path d="M1100 2510 c-20 -6 -21 -8 -5 -8 11 0 31 4 45 8 20 6 21 8 5 8 -11 0
-31 -4 -45 -8z"/>
<path d="M7390 2510 c8 -5 20 -10 25 -10 6 0 3 5 -5 10 -8 5 -19 10 -25 10 -5
0 -3 -5 5 -10z"/>
<path d="M1010 2490 l-25 -8 25 0 c14 0 34 3 45 8 l20 9 -20 -1 c-11 0 -31 -4
-45 -8z"/>
<path d="M7440 2490 c8 -5 20 -10 25 -10 6 0 3 5 -5 10 -8 5 -19 10 -25 10 -5
0 -3 -5 5 -10z"/>
<path d="M920 2470 c-20 -6 -21 -8 -5 -8 11 0 31 4 45 8 20 6 21 8 5 8 -11 0
-31 -4 -45 -8z"/>
<path d="M7485 2470 c3 -5 14 -10 23 -10 15 0 15 2 2 10 -20 13 -33 13 -25 0z"/>
<path d="M858 2453 c7 -3 16 -2 19 1 4 3 -2 6 -13 5 -11 0 -14 -3 -6 -6z"/>
<path d="M7530 2457 c8 -9 223 -98 227 -93 2 2 -42 22 -98 46 -121 50 -136 55
-129 47z"/>
<path d="M818 2443 c7 -3 16 -2 19 1 4 3 -2 6 -13 5 -11 0 -14 -3 -6 -6z"/>
<path d="M730 2430 c-20 -6 -21 -8 -5 -8 11 0 31 4 45 8 20 6 21 8 5 8 -11 0
-31 -4 -45 -8z"/>
<path d="M2958 2433 c7 -3 16 -2 19 1 4 3 -2 6 -13 5 -11 0 -14 -3 -6 -6z"/>
<path d="M640 2410 c-20 -6 -21 -8 -5 -8 11 0 31 4 45 8 20 6 21 8 5 8 -11 0
-31 -4 -45 -8z"/>
<path d="M300 2400 c14 -4 34 -8 45 -8 16 0 15 2 -5 8 -14 4 -34 8 -45 8 -16
0 -15 -2 5 -8z"/>
<path d="M550 2390 c-20 -6 -21 -8 -5 -8 11 0 31 4 45 8 20 6 21 8 5 8 -11 0
-31 -4 -45 -8z"/>
<path d="M7234 2380 c-12 -5 -25 -14 -29 -20 -7 -12 17 -7 81 15 l39 14 -35 0
c-19 0 -45 -4 -56 -9z"/>
<path d="M450 2370 c-20 -6 -21 -8 -5 -8 11 0 31 4 45 8 20 6 21 8 5 8 -11 0
-31 -4 -45 -8z"/>
<path d="M1721 2273 c-21 -180 -20 -198 14 -228 30 -26 64 -29 108 -10 12 5
17 3 17 -8 0 -8 7 -18 15 -21 13 -5 15 -23 13 -105 -2 -63 1 -102 8 -109 8 -8
10 2 6 36 -5 43 -4 46 11 33 10 -7 17 -19 17 -26 0 -6 7 -26 16 -44 13 -27 20
-31 43 -27 14 3 60 10 101 17 41 7 79 16 84 20 8 7 -41 92 -76 133 -5 6 -22
33 -39 59 -26 43 -33 48 -62 45 -35 -3 -44 -20 -13 -26 11 -3 16 0 12 7 -4 6
0 11 11 11 21 0 47 -36 37 -52 -4 -7 -3 -8 4 -4 6 3 16 -2 21 -13 14 -26 14
-34 -1 -25 -7 4 -8 3 -4 -5 4 -6 11 -9 16 -6 11 7 29 -26 23 -43 -3 -7 1 -10
9 -7 7 3 20 -8 30 -25 16 -28 16 -29 -4 -36 -13 -4 -24 -1 -29 7 -7 12 -9 11
-9 -1 0 -13 -1 -13 -10 0 -6 9 -5 17 2 21 6 4 6 9 1 12 -5 3 -15 2 -22 -2 -9
-6 -10 -11 -2 -15 13 -9 15 -36 2 -36 -5 0 -11 8 -13 17 -3 15 -6 15 -25 -6
-13 -14 -23 -19 -28 -12 -3 6 -11 11 -16 11 -6 0 -7 -4 -4 -10 3 -5 1 -10 -5
-10 -6 0 -22 25 -36 55 -14 30 -29 53 -32 51 -4 -2 -8 13 -9 35 -2 25 2 39 10
39 9 0 9 2 -1 8 -16 11 -6 39 16 45 12 3 10 5 -5 6 -27 1 -27 2 -12 35 10 20
9 30 -5 51 -9 14 -21 25 -27 25 -6 0 -19 10 -29 22 -14 18 -28 23 -70 23 l-51
0 6 93 c4 50 5 92 2 92 -2 0 -10 -44 -16 -97z"/>
<path d="M360 2350 c-20 -6 -21 -8 -5 -8 11 0 31 4 45 8 20 6 21 8 5 8 -11 0
-31 -4 -45 -8z"/>
<path d="M7240 2342 c-23 -18 -23 -18 76 -50 54 -17 100 -29 103 -27 8 9 -31
57 -62 75 -40 25 -88 25 -117 2z"/>
<path d="M7462 2340 c-45 -11 -47 -14 -21 -49 18 -24 28 -29 48 -25 111 25
122 33 72 55 -16 7 -28 16 -26 19 5 9 -36 9 -73 0z"/>
<path d="M260 2330 l-25 -8 25 0 c14 0 34 3 45 8 l20 9 -20 -1 c-11 0 -31 -4
-45 -8z"/>
<path d="M7024 2315 c-4 -8 -4 -22 0 -30 3 -8 1 -15 -4 -15 -6 0 -9 -5 -7 -12
4 -22 31 -48 49 -48 10 0 18 -5 18 -11 0 -6 7 -9 15 -5 8 3 15 2 15 -3 0 -4
28 -20 63 -36 34 -16 98 -46 142 -67 160 -78 180 -83 300 -82 61 0 118 4 128
8 13 6 17 20 17 56 0 40 -4 50 -20 55 -11 3 -20 13 -20 21 0 18 -5 18 -66 -1
-63 -19 -108 -19 -124 0 -7 9 -20 15 -29 13 -9 -1 -22 1 -28 5 -8 5 -13 3 -13
-3 0 -6 -13 -2 -29 9 -15 11 -32 17 -36 13 -4 -4 -4 3 0 16 3 12 3 22 -2 21
-4 -1 -28 7 -53 19 -25 12 -51 22 -57 22 -7 0 -13 4 -13 9 0 6 -9 8 -20 6 -11
-2 -18 0 -15 6 4 5 -1 10 -9 10 -29 3 -34 4 -42 12 -4 4 -16 7 -26 7 -11 0
-16 5 -13 10 3 6 2 10 -4 10 -5 0 -14 -7 -19 -16 -8 -14 -10 -14 -21 0 -17 20
-70 21 -77 1z m71 -46 c2 -22 -10 -38 -26 -39 -10 0 -20 47 -13 64 9 23 37 4
39 -25z m324 -138 c8 -5 15 -21 17 -35 1 -15 -1 -24 -6 -21 -5 3 -12 0 -15 -6
-10 -14 -36 37 -28 56 6 17 12 18 32 6z"/>
<path d="M170 2310 c-20 -6 -21 -8 -5 -8 11 0 31 4 45 8 20 6 21 8 5 8 -11 0
-31 -4 -45 -8z"/>
<path d="M3700 2316 c0 -2 7 -6 15 -10 8 -3 15 -1 15 4 0 6 -7 10 -15 10 -8 0
-15 -2 -15 -4z"/>
<path d="M4153 2299 c-42 -12 -42 -16 2 -15 21 1 35 6 35 14 0 6 -1 12 -2 11
-2 0 -18 -5 -35 -10z"/>
<path d="M80 2290 c-20 -6 -21 -8 -5 -8 11 0 29 3 40 8 25 11 -1 11 -35 0z"/>
<path d="M4196 2275 c-3 -9 0 -15 8 -15 7 0 19 -7 26 -15 13 -16 40 -21 40 -7
-2 31 -64 63 -74 37z"/>
<path d="M7 2273 c7 -2 19 -2 26 0 6 3 1 5 -13 5 -14 0 -19 -2 -13 -5z"/>
<path d="M3993 2248 c-18 -6 -51 -28 -74 -49 -23 -21 -46 -40 -53 -43 -8 -3
-7 -5 1 -5 7 -1 10 -8 7 -16 -9 -22 20 -19 160 14 66 16 140 32 164 36 23 4
42 9 42 11 0 12 -38 44 -63 53 -35 14 -141 13 -184 -1z"/>
<path d="M4550 2240 c0 -5 5 -10 11 -10 5 0 7 5 4 10 -3 6 -8 10 -11 10 -2 0
-4 -4 -4 -10z"/>
<path d="M3763 2228 c-22 -28 -24 -38 -8 -32 10 4 14 2 10 -8 -6 -16 -46 -18
-57 -3 -4 5 -10 7 -13 3 -4 -3 7 -19 24 -34 24 -21 28 -30 19 -36 -9 -6 -5 -7
9 -3 12 3 31 1 43 -5 16 -9 18 -15 10 -30 -14 -26 -13 -30 10 -30 11 0 20 5
20 10 0 6 -4 10 -9 10 -4 0 -5 19 0 43 9 47 10 80 2 60 -2 -7 -11 -13 -19 -13
-8 0 -14 -4 -14 -10 0 -5 -7 -6 -17 -3 -12 5 -14 3 -8 -8 8 -12 6 -12 -9 0
-19 16 -6 30 29 31 11 0 29 7 39 15 19 14 19 15 -6 15 -15 0 -30 5 -33 10 -4
6 -12 7 -18 4 -9 -5 -9 -3 0 6 10 11 15 11 30 -1 16 -13 17 -12 4 4 -16 20
-25 21 -38 5z"/>
<path d="M7701 2224 c-1 -7 -20 -17 -43 -23 -65 -16 -77 -27 -40 -36 33 -7 72
8 72 28 0 8 4 7 10 -3 14 -22 25 -3 12 22 -6 13 -11 18 -11 12z"/>
<path d="M7542 2167 c-14 -16 -6 -27 20 -27 13 0 18 6 16 17 -4 22 -22 27 -36
10z"/>
<path d="M4020 2120 c-10 -34 -4 -52 22 -64 28 -14 41 -4 14 11 -8 5 -19 19
-25 33 -5 14 -10 23 -11 20z"/>
<path d="M4206 2106 c-18 -9 -24 -15 -15 -18 8 -3 23 3 33 13 22 22 21 22 -18
5z"/>
<path d="M3610 2080 c-9 -6 -10 -10 -3 -10 6 0 15 5 18 10 8 12 4 12 -15 0z"/>
<path d="M4125 2079 c-4 -6 -4 -13 0 -17 4 -4 10 -1 12 5 3 8 15 11 31 7 21
-4 24 -3 12 5 -19 14 -47 14 -55 0z"/>
<path d="M4078 2073 c7 -3 16 -2 19 1 4 3 -2 6 -13 5 -11 0 -14 -3 -6 -6z"/>
<path d="M4000 2046 c0 -2 9 -6 20 -9 11 -3 20 -1 20 4 0 5 -9 9 -20 9 -11 0
-20 -2 -20 -4z"/>
<path d="M3410 2015 c-14 -8 -20 -14 -14 -15 5 0 19 7 30 15 24 18 16 19 -16
0z"/>
<path d="M1948 1983 c7 -3 16 -2 19 1 4 3 -2 6 -13 5 -11 0 -14 -3 -6 -6z"/>
<path d="M3410 1986 c0 -2 7 -7 16 -10 8 -3 12 -2 9 4 -6 10 -25 14 -25 6z"/>
<path d="M2021 1928 c9 -16 29 -17 29 -2 0 3 -5 2 -12 -2 -7 -5 -9 -2 -6 8 4
8 0 15 -7 15 -10 0 -11 -5 -4 -19z"/>
<path d="M3475 1930 c10 -11 20 -20 23 -20 3 0 -3 9 -13 20 -10 11 -20 20 -23
20 -3 0 3 -9 13 -20z"/>
<path d="M1988 1913 c7 -3 16 -2 19 1 4 3 -2 6 -13 5 -11 0 -14 -3 -6 -6z"/>
<path d="M2030 1902 c-14 -2 -29 -8 -35 -13 -9 -9 54 -1 64 7 8 7 -4 10 -29 6z"/>
<path d="M1950 1876 c0 -8 4 -17 9 -21 6 -3 9 4 8 15 -1 23 -17 28 -17 6z"/>
<path d="M2015 1869 c-4 -6 -5 -12 -2 -15 2 -3 7 2 10 11 7 17 1 20 -8 4z"/>
<path d="M3778 1873 c7 -3 16 -2 19 1 4 3 -2 6 -13 5 -11 0 -14 -3 -6 -6z"/>
<path d="M3550 1866 c0 -2 8 -10 18 -17 15 -13 16 -12 3 4 -13 16 -21 21 -21
13z"/>
<path d="M3715 1860 c-13 -5 -14 -9 -5 -9 8 0 24 4 35 9 13 5 14 9 5 9 -8 0
-24 -4 -35 -9z"/>
<path d="M2025 1840 c-3 -5 1 -10 9 -10 9 0 16 5 16 10 0 6 -4 10 -9 10 -6 0
-13 -4 -16 -10z"/>
<path d="M3660 1840 c-8 -5 -10 -10 -5 -10 6 0 17 5 25 10 8 5 11 10 5 10 -5
0 -17 -5 -25 -10z"/>
<path d="M1970 1830 c0 -5 7 -7 15 -4 8 4 15 8 15 10 0 2 -7 4 -15 4 -8 0 -15
-4 -15 -10z"/>
<path d="M3596 1818 c3 -4 11 -5 19 -1 21 7 19 12 -4 10 -11 0 -18 -5 -15 -9z"/>
<path d="M1029 1605 c17 -20 31 -40 31 -45 0 -6 7 -10 15 -10 24 0 18 17 -20
55 -46 46 -66 46 -26 0z"/>
<path d="M805 1565 c-89 -19 -323 -110 -337 -130 -4 -5 -8 2 -8 16 0 35 -48
80 -75 69 -54 -21 -52 -61 5 -117 18 -17 29 -36 25 -42 -3 -6 -1 -11 4 -11 6
0 11 7 11 15 0 8 9 15 20 15 11 0 20 -5 20 -12 0 -7 5 -5 13 5 12 16 147 53
377 102 69 15 130 29 137 31 18 5 3 45 -21 53 -44 17 -113 19 -171 6z"/>
<path d="M1315 1505 c-5 -11 -10 -23 -12 -27 -2 -4 3 -5 11 -2 27 10 17 -12
-10 -25 -15 -6 -27 -10 -28 -9 -33 55 -37 58 -75 58 -45 0 -83 -26 -101 -70
-9 -23 -15 -28 -21 -18 -7 10 -9 9 -9 -3 0 -12 -24 -24 -85 -44 -47 -15 -89
-33 -93 -41 -7 -13 -141 -64 -168 -64 -7 0 -15 8 -19 18 -6 21 -45 42 -76 42
-29 0 -88 -29 -98 -49 -5 -9 -11 -25 -12 -36 -5 -26 -18 -35 -51 -35 -35 0
-36 -14 -3 -36 30 -20 90 -13 175 19 30 11 80 21 110 21 43 1 55 4 53 16 -2
11 42 29 170 68 95 30 177 53 182 52 27 -6 66 1 60 10 -6 10 76 52 103 53 6 0
12 1 12 2 0 2 7 19 15 39 11 25 12 35 4 34 -7 -2 -15 8 -19 22 -7 24 -8 24
-15 5z m-125 -51 c0 -13 3 -14 13 -5 14 11 27 5 27 -11 0 -5 -4 -7 -9 -3 -5 3
-12 1 -15 -4 -4 -5 -2 -12 4 -16 6 -4 7 -11 4 -17 -4 -6 -9 -5 -15 3 -6 11
-11 11 -21 1 -17 -17 -33 -15 -18 3 10 12 10 15 -4 15 -9 0 -16 4 -16 10 0 5
7 7 15 4 10 -4 15 0 15 15 0 12 5 21 10 21 6 0 10 -7 10 -16z m-143 -90 c-3
-3 -12 -4 -19 -1 -8 3 -5 6 6 6 11 1 17 -2 13 -5z m-47 -14 c-8 -5 -22 -10
-30 -10 -13 0 -13 1 0 10 8 5 22 10 30 10 13 0 13 -1 0 -10z m-65 -20 c-3 -5
-14 -10 -23 -10 -15 0 -15 2 -2 10 20 13 33 13 25 0z m-325 -55 c0 -17 16 -20
25 -5 7 12 25 4 25 -11 0 -6 -4 -8 -9 -4 -5 3 -12 1 -15 -4 -4 -5 -2 -12 4
-16 6 -4 8 -11 4 -16 -4 -6 -11 -6 -19 1 -10 8 -16 7 -23 -7 -6 -10 -14 -15
-18 -11 -4 4 -1 15 7 24 12 15 11 16 -9 10 -16 -5 -22 -3 -22 7 0 8 8 14 18
13 11 -1 16 5 14 17 -2 9 2 17 8 17 5 0 10 -7 10 -15z m187 -61 c-3 -3 -12 -4
-19 -1 -8 3 -5 6 6 6 11 1 17 -2 13 -5z"/>
<path d="M2848 1483 c7 -3 16 -2 19 1 4 3 -2 6 -13 5 -11 0 -14 -3 -6 -6z"/>
<path d="M1071 1444 c0 -11 3 -14 6 -6 3 7 2 16 -1 19 -3 4 -6 -2 -5 -13z"/>
<path d="M455 1340 c3 -5 8 -10 11 -10 2 0 4 5 4 10 0 6 -5 10 -11 10 -5 0 -7
-4 -4 -10z"/>
<path d="M775 1300 c-35 -17 -36 -18 -10 -13 17 3 37 12 45 19 19 18 13 17
-35 -6z"/>
</g>
</svg>
